# Blender v3.4.1 OBJ File: 'Board_game_bits_export.blend'
# www.blender.org
mtllib coin_gold.mtl
o coin_gold
v 0.000000 0.050417 0.000000
v 0.000000 0.149583 0.000000
v -0.000000 0.000000 -0.471708
v 0.180515 0.000000 -0.435802
v 0.180515 0.200000 -0.435802
v -0.000000 0.200000 -0.471708
v 0.333548 0.000000 -0.333548
v 0.333548 0.200000 -0.333548
v 0.435802 0.000000 -0.180515
v 0.435802 0.200000 -0.180515
v 0.471708 0.000000 0.000000
v 0.471708 0.200000 0.000000
v 0.435802 0.000000 0.180515
v 0.435802 0.200000 0.180515
v 0.333548 0.000000 0.333548
v 0.333548 0.200000 0.333548
v 0.180515 0.000000 0.435802
v 0.180515 0.200000 0.435802
v -0.000000 0.000000 0.471708
v -0.000000 0.200000 0.471708
v -0.180515 0.000000 0.435802
v -0.180515 0.200000 0.435802
v -0.333548 0.000000 0.333548
v -0.333548 0.200000 0.333548
v -0.435802 0.000000 0.180515
v -0.435802 0.200000 0.180515
v -0.471708 0.000000 -0.000000
v -0.471708 0.200000 -0.000000
v -0.435802 0.000000 -0.180515
v -0.435802 0.200000 -0.180515
v -0.333548 0.000000 -0.333548
v -0.333548 0.200000 -0.333548
v -0.180515 0.000000 -0.435802
v -0.180515 0.200000 -0.435802
v -0.000000 0.050417 -0.257428
v -0.000000 0.000000 -0.369395
v -0.000000 0.071000 -0.313412
v 0.141361 0.000000 -0.341277
v 0.098514 0.050417 -0.237833
v 0.119937 0.071000 -0.289555
v 0.098514 0.149583 -0.237833
v 0.141361 0.200000 -0.341277
v 0.119937 0.129000 -0.289555
v -0.000000 0.200000 -0.369395
v -0.000000 0.149583 -0.257428
v -0.000000 0.129000 -0.313412
v 0.261202 0.000000 -0.261202
v 0.182029 0.050417 -0.182029
v 0.221616 0.071000 -0.221616
v 0.182029 0.149583 -0.182029
v 0.261202 0.200000 -0.261202
v 0.221616 0.129000 -0.221616
v 0.341276 0.000000 -0.141361
v 0.237833 0.050417 -0.098514
v 0.289555 0.071000 -0.119937
v 0.237833 0.149583 -0.098514
v 0.341276 0.200000 -0.141361
v 0.289555 0.129000 -0.119937
v 0.369395 0.000000 0.000000
v 0.257428 0.050417 0.000000
v 0.313412 0.071000 0.000000
v 0.257428 0.149583 0.000000
v 0.369395 0.200000 0.000000
v 0.313412 0.129000 0.000000
v 0.341277 0.000000 0.141361
v 0.237833 0.050417 0.098514
v 0.289555 0.071000 0.119937
v 0.237833 0.149583 0.098514
v 0.341277 0.200000 0.141361
v 0.289555 0.129000 0.119937
v 0.261202 0.000000 0.261202
v 0.182029 0.050417 0.182029
v 0.221616 0.071000 0.221616
v 0.182029 0.149583 0.182029
v 0.261202 0.200000 0.261202
v 0.221616 0.129000 0.221616
v 0.141361 0.000000 0.341277
v 0.098514 0.050417 0.237833
v 0.119937 0.071000 0.289555
v 0.098514 0.149583 0.237833
v 0.141361 0.200000 0.341277
v 0.119937 0.129000 0.289555
v -0.000000 0.000000 0.369395
v -0.000000 0.050417 0.257428
v -0.000000 0.071000 0.313412
v -0.000000 0.149583 0.257428
v -0.000000 0.200000 0.369395
v -0.000000 0.129000 0.313412
v -0.141361 0.000000 0.341277
v -0.098514 0.050417 0.237833
v -0.119937 0.071000 0.289555
v -0.098514 0.149583 0.237833
v -0.141361 0.200000 0.341277
v -0.119937 0.129000 0.289555
v -0.261202 0.000000 0.261202
v -0.182029 0.050417 0.182029
v -0.221615 0.071000 0.221616
v -0.182029 0.149583 0.182029
v -0.261202 0.200000 0.261202
v -0.221615 0.129000 0.221616
v -0.341277 0.000000 0.141361
v -0.237833 0.050417 0.098514
v -0.289555 0.071000 0.119938
v -0.237833 0.149583 0.098514
v -0.341277 0.200000 0.141361
v -0.289555 0.129000 0.119938
v -0.369395 0.000000 0.000000
v -0.257428 0.050417 0.000000
v -0.313412 0.071000 0.000000
v -0.257428 0.149583 0.000000
v -0.369395 0.200000 0.000000
v -0.313412 0.129000 0.000000
v -0.341276 0.000000 -0.141361
v -0.237833 0.050417 -0.098514
v -0.289555 0.071000 -0.119938
v -0.237833 0.149583 -0.098514
v -0.341276 0.200000 -0.141361
v -0.289555 0.129000 -0.119938
v -0.261202 0.000000 -0.261202
v -0.182029 0.050417 -0.182029
v -0.221616 0.071000 -0.221616
v -0.182029 0.149583 -0.182029
v -0.261202 0.200000 -0.261202
v -0.221616 0.129000 -0.221616
v -0.141361 0.000000 -0.341277
v -0.098514 0.050417 -0.237833
v -0.119937 0.071000 -0.289555
v -0.098514 0.149583 -0.237833
v -0.141361 0.200000 -0.341277
v -0.119937 0.129000 -0.289555
v 0.000000 0.168535 -0.519857
v 0.000000 0.031463 -0.519857
v 0.198941 0.031463 -0.480285
v 0.198941 0.168535 -0.480285
v 0.367594 0.031463 -0.367594
v 0.367594 0.168535 -0.367594
v 0.480285 0.031463 -0.198941
v 0.480285 0.168535 -0.198941
v 0.519857 0.031463 0.000000
v 0.519857 0.168535 0.000000
v 0.480285 0.031463 0.198941
v 0.480285 0.168535 0.198941
v 0.367594 0.031463 0.367594
v 0.367594 0.168535 0.367594
v 0.198941 0.031463 0.480285
v 0.198941 0.168535 0.480285
v -0.000000 0.031463 0.519857
v -0.000000 0.168535 0.519857
v -0.198941 0.031463 0.480285
v -0.198941 0.168535 0.480285
v -0.367594 0.031463 0.367594
v -0.367594 0.168535 0.367594
v -0.480285 0.031463 0.198941
v -0.480285 0.168535 0.198941
v -0.519857 0.031463 -0.000000
v -0.519857 0.168535 -0.000000
v -0.480285 0.031463 -0.198941
v -0.480285 0.168535 -0.198941
v -0.367594 0.031463 -0.367594
v -0.367594 0.168535 -0.367594
v -0.198941 0.031463 -0.480285
v -0.198941 0.168535 -0.480285
vt 0.327781 0.724686
vt 0.327613 0.726861
vt 0.332031 0.731552
vt 0.332031 0.729198
vt 0.339884 0.711836
vt 0.340196 0.713501
vt 0.342699 0.693507
vt 0.342291 0.692606
vt 0.343578 0.669922
vt 0.343137 0.669922
vt 0.342699 0.646337
vt 0.342291 0.647238
vt 0.340196 0.626343
vt 0.339884 0.628008
vt 0.336450 0.612983
vt 0.336281 0.615158
vt 0.332031 0.608292
vt 0.332031 0.610646
vt 0.327613 0.612983
vt 0.327781 0.615158
vt 0.323867 0.626343
vt 0.324179 0.628008
vt 0.321364 0.646337
vt 0.321771 0.647238
vt 0.320485 0.669922
vt 0.320926 0.669922
vt 0.321364 0.693507
vt 0.321771 0.692606
vt 0.323867 0.713501
vt 0.324179 0.711836
vt 0.336450 0.726861
vt 0.336281 0.724686
vt 0.332031 0.654297
vt 0.329843 0.682492
vt 0.332031 0.684816
vt 0.332031 0.654297
vt 0.336074 0.675877
vt 0.334219 0.682492
vt 0.332031 0.684816
vt 0.332031 0.713714
vt 0.335171 0.710381
vt 0.336281 0.724686
vt 0.332031 0.729198
vt 0.337314 0.665976
vt 0.337314 0.665976
vt 0.337749 0.654297
vt 0.337749 0.654297
vt 0.337314 0.642618
vt 0.337314 0.642618
vt 0.336074 0.632717
vt 0.336074 0.632717
vt 0.334219 0.626101
vt 0.334219 0.626101
vt 0.332031 0.623778
vt 0.332031 0.623778
vt 0.329843 0.626101
vt 0.329843 0.626101
vt 0.327988 0.632717
vt 0.327988 0.632717
vt 0.326749 0.642618
vt 0.326749 0.642618
vt 0.326314 0.654297
vt 0.326314 0.654297
vt 0.326749 0.665976
vt 0.326749 0.665976
vt 0.327988 0.675877
vt 0.327988 0.675877
vt 0.329843 0.682492
vt 0.335171 0.710381
vt 0.332031 0.713714
vt 0.336074 0.675877
vt 0.328892 0.710381
vt 0.337833 0.700888
vt 0.339884 0.711836
vt 0.337833 0.700888
vt 0.339611 0.686681
vt 0.339611 0.686681
vt 0.342291 0.692606
vt 0.340236 0.669922
vt 0.340236 0.669922
vt 0.343137 0.669922
vt 0.339611 0.653163
vt 0.339611 0.653163
vt 0.342291 0.647238
vt 0.337833 0.638956
vt 0.337833 0.638956
vt 0.339884 0.628008
vt 0.335171 0.629463
vt 0.335171 0.629463
vt 0.336281 0.615158
vt 0.332031 0.626130
vt 0.332031 0.626130
vt 0.332031 0.610646
vt 0.328892 0.629463
vt 0.328892 0.629463
vt 0.327781 0.615158
vt 0.326230 0.638956
vt 0.326230 0.638956
vt 0.324179 0.628008
vt 0.324451 0.653163
vt 0.324451 0.653163
vt 0.321771 0.647238
vt 0.323827 0.669922
vt 0.323827 0.669922
vt 0.320926 0.669922
vt 0.324451 0.686681
vt 0.324451 0.686681
vt 0.321771 0.692606
vt 0.326230 0.700888
vt 0.326230 0.700888
vt 0.324179 0.711836
vt 0.328892 0.710381
vt 0.327781 0.724686
vt 0.334219 0.682492
vt 0.332031 0.651214
vt 0.335171 0.647881
vt 0.334695 0.641749
vt 0.332031 0.644577
vt 0.332031 0.675827
vt 0.334695 0.672999
vt 0.334219 0.666867
vt 0.332031 0.669191
vt 0.335171 0.647881
vt 0.332031 0.651214
vt 0.332031 0.644577
vt 0.334695 0.641749
vt 0.334695 0.672999
vt 0.332031 0.675827
vt 0.332031 0.669191
vt 0.334219 0.666867
vt 0.337833 0.638388
vt 0.336953 0.633695
vt 0.336953 0.664945
vt 0.336074 0.660252
vt 0.337833 0.638388
vt 0.336953 0.633695
vt 0.336953 0.664945
vt 0.336074 0.660252
vt 0.339611 0.624181
vt 0.338462 0.621641
vt 0.338462 0.652891
vt 0.337314 0.650351
vt 0.339611 0.624181
vt 0.338462 0.621641
vt 0.338462 0.652891
vt 0.337314 0.650351
vt 0.340236 0.607422
vt 0.338992 0.607422
vt 0.338992 0.638672
vt 0.337749 0.638672
vt 0.340236 0.607422
vt 0.338992 0.607422
vt 0.338992 0.638672
vt 0.337749 0.638672
vt 0.339611 0.590663
vt 0.338462 0.593203
vt 0.338462 0.624453
vt 0.337314 0.626993
vt 0.339611 0.590663
vt 0.338462 0.593203
vt 0.338462 0.624453
vt 0.337314 0.626993
vt 0.337833 0.576456
vt 0.336953 0.581149
vt 0.336953 0.612399
vt 0.336074 0.617092
vt 0.337833 0.576456
vt 0.336953 0.581149
vt 0.336953 0.612399
vt 0.336074 0.617092
vt 0.335171 0.566963
vt 0.334695 0.573095
vt 0.334695 0.604345
vt 0.334219 0.610476
vt 0.335171 0.566963
vt 0.334695 0.573095
vt 0.334695 0.604345
vt 0.334219 0.610476
vt 0.332031 0.563630
vt 0.332031 0.570266
vt 0.332031 0.601516
vt 0.332031 0.608153
vt 0.332031 0.563630
vt 0.332031 0.570266
vt 0.332031 0.601516
vt 0.332031 0.608153
vt 0.328892 0.566963
vt 0.329367 0.573095
vt 0.329367 0.604345
vt 0.329843 0.610476
vt 0.328892 0.566963
vt 0.329367 0.573095
vt 0.329367 0.604345
vt 0.329843 0.610476
vt 0.326230 0.576456
vt 0.327109 0.581149
vt 0.327109 0.612399
vt 0.327988 0.617092
vt 0.326230 0.576456
vt 0.327109 0.581149
vt 0.327109 0.612399
vt 0.327988 0.617092
vt 0.324451 0.590663
vt 0.325600 0.593203
vt 0.325600 0.624453
vt 0.326749 0.626993
vt 0.324451 0.590663
vt 0.325600 0.593203
vt 0.325600 0.624453
vt 0.326749 0.626993
vt 0.323827 0.607422
vt 0.325070 0.607422
vt 0.325070 0.638672
vt 0.326314 0.638672
vt 0.323827 0.607422
vt 0.325070 0.607422
vt 0.325070 0.638672
vt 0.326314 0.638672
vt 0.324451 0.624181
vt 0.325600 0.621641
vt 0.325600 0.652891
vt 0.326749 0.650351
vt 0.324451 0.624181
vt 0.325600 0.621641
vt 0.325600 0.652891
vt 0.326749 0.650351
vt 0.326230 0.638388
vt 0.327109 0.633695
vt 0.327109 0.664945
vt 0.327988 0.660252
vt 0.326230 0.638388
vt 0.327109 0.633695
vt 0.327109 0.664945
vt 0.327988 0.660252
vt 0.328892 0.647881
vt 0.329367 0.641749
vt 0.329367 0.672999
vt 0.329843 0.666867
vt 0.328892 0.647881
vt 0.329367 0.641749
vt 0.329367 0.672999
vt 0.329843 0.666867
vt 0.323867 0.713501
vt 0.327613 0.726861
vt 0.321364 0.693507
vt 0.320485 0.669922
vt 0.321364 0.646337
vt 0.323867 0.626343
vt 0.327613 0.612983
vt 0.332031 0.608292
vt 0.336450 0.612983
vt 0.340196 0.626343
vt 0.342699 0.646337
vt 0.343578 0.669922
vt 0.342699 0.693507
vt 0.340196 0.713501
vt 0.336450 0.726861
vt 0.332031 0.731552
vt 0.327613 0.695611
vt 0.332031 0.700302
vt 0.332031 0.700302
vt 0.327613 0.695611
vt 0.323867 0.682251
vt 0.323867 0.682251
vt 0.321364 0.662257
vt 0.321364 0.662257
vt 0.320485 0.638672
vt 0.320485 0.638672
vt 0.321364 0.615087
vt 0.321364 0.615087
vt 0.323867 0.595093
vt 0.323867 0.595093
vt 0.327613 0.581733
vt 0.327613 0.581733
vt 0.332031 0.577042
vt 0.332031 0.577042
vt 0.336450 0.581733
vt 0.336450 0.581733
vt 0.340196 0.595093
vt 0.340196 0.595093
vt 0.342699 0.615087
vt 0.342699 0.615087
vt 0.343578 0.638672
vt 0.343578 0.638672
vt 0.342699 0.662257
vt 0.342699 0.662257
vt 0.340196 0.682251
vt 0.340196 0.682251
vt 0.336450 0.695611
vt 0.336450 0.695611
vn -0.2093 -0.8371 -0.5054
vn 0.0000 -0.8371 -0.5470
vn 0.3868 -0.8371 -0.3868
vn 0.5054 -0.8371 -0.2093
vn 0.5470 -0.8371 -0.0000
vn 0.5054 -0.8371 0.2093
vn 0.3868 -0.8371 0.3868
vn 0.2093 -0.8371 0.5054
vn -0.0000 -0.8371 0.5470
vn -0.2093 -0.8371 0.5054
vn -0.3868 -0.8371 0.3868
vn -0.5054 -0.8371 0.2093
vn -0.5470 -0.8371 -0.0000
vn -0.5054 -0.8371 -0.2093
vn -0.3868 -0.8371 -0.3868
vn 0.2093 -0.8371 -0.5054
vn -0.0000 -1.0000 -0.0000
vn -0.0751 -0.9805 -0.1814
vn -0.0000 -0.9805 -0.1963
vn 0.0000 1.0000 0.0000
vn 0.1388 0.9805 -0.1388
vn 0.0751 0.9805 -0.1814
vn -0.0000 0.9805 -0.1963
vn 0.1814 0.9805 -0.0751
vn 0.1814 -0.9805 -0.0751
vn 0.1963 -0.9805 -0.0000
vn 0.1963 0.9805 -0.0000
vn 0.1814 -0.9805 0.0751
vn 0.1814 0.9805 0.0751
vn 0.1388 -0.9805 0.1388
vn 0.1388 0.9805 0.1388
vn 0.0751 -0.9805 0.1814
vn 0.0751 0.9805 0.1814
vn -0.0000 -0.9805 0.1963
vn -0.0000 0.9805 0.1963
vn -0.0751 -0.9805 0.1814
vn -0.0751 0.9805 0.1814
vn -0.1388 -0.9805 0.1388
vn -0.1388 0.9805 0.1388
vn -0.1814 -0.9805 0.0751
vn -0.1814 0.9805 0.0751
vn -0.1963 -0.9805 -0.0000
vn -0.1963 0.9805 -0.0000
vn -0.1814 -0.9805 -0.0751
vn -0.1814 0.9805 -0.0751
vn -0.1388 -0.9805 -0.1388
vn -0.1388 0.9805 -0.1388
vn -0.0751 0.9805 -0.1814
vn 0.1388 -0.9805 -0.1388
vn 0.0751 -0.9805 -0.1814
vn -0.0000 -0.6192 0.7853
vn -0.3005 -0.6192 0.7255
vn -0.0000 -0.9386 -0.3451
vn 0.1321 -0.9386 -0.3188
vn -0.3005 0.6192 0.7255
vn 0.0000 0.6192 0.7853
vn 0.1321 0.9386 -0.3188
vn -0.0000 0.9386 -0.3451
vn -0.5553 -0.6192 0.5553
vn 0.2440 -0.9386 -0.2440
vn -0.5553 0.6192 0.5553
vn 0.2440 0.9386 -0.2440
vn -0.7255 -0.6192 0.3005
vn 0.3188 -0.9386 -0.1321
vn -0.7255 0.6192 0.3005
vn 0.3188 0.9386 -0.1321
vn -0.7853 -0.6192 0.0000
vn 0.3451 -0.9386 -0.0000
vn -0.7853 0.6192 0.0000
vn 0.3451 0.9386 -0.0000
vn -0.7255 -0.6192 -0.3005
vn 0.3188 -0.9386 0.1321
vn -0.7255 0.6192 -0.3005
vn 0.3188 0.9386 0.1321
vn -0.5553 -0.6192 -0.5553
vn 0.2440 -0.9386 0.2440
vn -0.5553 0.6192 -0.5553
vn 0.2440 0.9386 0.2440
vn -0.3005 -0.6192 -0.7255
vn 0.1321 -0.9386 0.3188
vn -0.3005 0.6192 -0.7255
vn 0.1321 0.9386 0.3188
vn 0.0000 -0.6192 -0.7853
vn -0.0000 -0.9386 0.3451
vn -0.0000 0.6192 -0.7853
vn -0.0000 0.9386 0.3451
vn 0.3005 -0.6192 -0.7255
vn -0.1321 -0.9386 0.3188
vn 0.3005 0.6192 -0.7255
vn -0.1321 0.9386 0.3188
vn 0.5553 -0.6192 -0.5553
vn -0.2440 -0.9386 0.2440
vn 0.5553 0.6192 -0.5553
vn -0.2440 0.9386 0.2440
vn 0.7255 -0.6192 -0.3005
vn -0.3188 -0.9386 0.1321
vn 0.7255 0.6192 -0.3005
vn -0.3188 0.9386 0.1321
vn 0.7853 -0.6192 0.0000
vn -0.3451 -0.9386 -0.0000
vn 0.7853 0.6192 0.0000
vn -0.3451 0.9386 -0.0000
vn 0.7255 -0.6192 0.3005
vn -0.3188 -0.9386 -0.1321
vn 0.7255 0.6192 0.3005
vn -0.3188 0.9386 -0.1321
vn 0.5553 -0.6192 0.5553
vn -0.2440 -0.9386 -0.2440
vn 0.5553 0.6192 0.5553
vn -0.2440 0.9386 -0.2440
vn 0.3005 -0.6192 0.7255
vn -0.1321 -0.9386 -0.3188
vn 0.3005 0.6192 0.7255
vn -0.1321 0.9386 -0.3188
vn -0.3868 0.8371 -0.3868
vn -0.2093 0.8371 -0.5054
vn -0.5054 0.8371 -0.2093
vn -0.5470 0.8371 -0.0000
vn -0.5054 0.8371 0.2093
vn -0.3868 0.8371 0.3868
vn -0.2093 0.8371 0.5054
vn -0.0000 0.8371 0.5470
vn 0.2093 0.8371 0.5054
vn 0.3868 0.8371 0.3868
vn 0.5054 0.8371 0.2093
vn 0.5470 0.8371 -0.0000
vn 0.5054 0.8371 -0.2093
vn 0.3868 0.8371 -0.3868
vn 0.2093 0.8371 -0.5054
vn 0.0000 0.8371 -0.5470
vn -0.3827 0.0000 -0.9239
vn -0.0000 0.0000 -1.0000
vn -0.7071 0.0000 -0.7071
vn -0.9239 0.0000 -0.3827
vn -1.0000 -0.0000 -0.0000
vn -0.9239 -0.0000 0.3827
vn -0.7071 0.0000 0.7071
vn -0.3827 0.0000 0.9239
vn -0.0000 0.0000 1.0000
vn 0.3827 0.0000 0.9239
vn 0.7071 0.0000 0.7071
vn 0.9239 0.0000 0.3827
vn 1.0000 0.0000 -0.0000
vn 0.9239 0.0000 -0.3827
vn 0.7071 0.0000 -0.7071
vn 0.3827 0.0000 -0.9239
usemtl boardgame_metallic
s 1
f 33/1/1 161/2/1 132/3/2 3/4/2
f 7/5/3 135/6/3 137/7/4 9/8/4
f 9/8/4 137/7/4 139/9/5 11/10/5
f 11/10/5 139/9/5 141/11/6 13/12/6
f 13/12/6 141/11/6 143/13/7 15/14/7
f 15/14/7 143/13/7 145/15/8 17/16/8
f 17/16/8 145/15/8 147/17/9 19/18/9
f 19/18/9 147/17/9 149/19/10 21/20/10
f 21/20/10 149/19/10 151/21/11 23/22/11
f 23/22/11 151/21/11 153/23/12 25/24/12
f 25/24/12 153/23/12 155/25/13 27/26/13
f 27/26/13 155/25/13 157/27/14 29/28/14
f 29/28/14 157/27/14 159/29/15 31/30/15
f 31/30/15 159/29/15 161/2/1 33/1/1
f 3/4/2 132/3/2 133/31/16 4/32/16
f 1/33/17 126/34/18 35/35/19
f 2/36/20 50/37/21 41/38/22
f 2/36/20 41/38/22 45/39/23
f 44/40/20 42/41/20 5/42/20 6/43/20
f 2/36/20 56/44/24 50/37/21
f 1/33/17 54/45/25 60/46/26
f 2/36/20 62/47/27 56/44/24
f 1/33/17 60/46/26 66/48/28
f 2/36/20 68/49/29 62/47/27
f 1/33/17 66/48/28 72/50/30
f 2/36/20 74/51/31 68/49/29
f 1/33/17 72/50/30 78/52/32
f 2/36/20 80/53/33 74/51/31
f 1/33/17 78/52/32 84/54/34
f 2/36/20 86/55/35 80/53/33
f 1/33/17 84/54/34 90/56/36
f 2/36/20 92/57/37 86/55/35
f 1/33/17 90/56/36 96/58/38
f 2/36/20 98/59/39 92/57/37
f 1/33/17 96/58/38 102/60/40
f 2/36/20 104/61/41 98/59/39
f 1/33/17 102/60/40 108/62/42
f 2/36/20 110/63/43 104/61/41
f 1/33/17 108/62/42 114/64/44
f 2/36/20 116/65/45 110/63/43
f 1/33/17 114/64/44 120/66/46
f 2/36/20 122/67/47 116/65/45
f 1/33/17 120/66/46 126/34/18
f 2/36/20 128/68/48 122/67/47
f 38/69/17 36/70/17 3/4/17 4/32/17
f 1/33/17 48/71/49 54/45/25
f 36/70/17 125/72/17 33/1/17 3/4/17
f 42/41/20 51/73/20 8/74/20 5/42/20
f 47/75/17 38/69/17 4/32/17 7/5/17
f 2/36/20 45/39/23 128/68/48
f 53/76/17 47/75/17 7/5/17 9/8/17
f 51/73/20 57/77/20 10/78/20 8/74/20
f 59/79/17 53/76/17 9/8/17 11/10/17
f 57/77/20 63/80/20 12/81/20 10/78/20
f 65/82/17 59/79/17 11/10/17 13/12/17
f 63/80/20 69/83/20 14/84/20 12/81/20
f 71/85/17 65/82/17 13/12/17 15/14/17
f 69/83/20 75/86/20 16/87/20 14/84/20
f 77/88/17 71/85/17 15/14/17 17/16/17
f 75/86/20 81/89/20 18/90/20 16/87/20
f 83/91/17 77/88/17 17/16/17 19/18/17
f 81/89/20 87/92/20 20/93/20 18/90/20
f 89/94/17 83/91/17 19/18/17 21/20/17
f 87/92/20 93/95/20 22/96/20 20/93/20
f 95/97/17 89/94/17 21/20/17 23/22/17
f 93/95/20 99/98/20 24/99/20 22/96/20
f 101/100/17 95/97/17 23/22/17 25/24/17
f 99/98/20 105/101/20 26/102/20 24/99/20
f 107/103/17 101/100/17 25/24/17 27/26/17
f 105/101/20 111/104/20 28/105/20 26/102/20
f 113/106/17 107/103/17 27/26/17 29/28/17
f 111/104/20 117/107/20 30/108/20 28/105/20
f 119/109/17 113/106/17 29/28/17 31/30/17
f 117/107/20 123/110/20 32/111/20 30/108/20
f 125/72/17 119/109/17 31/30/17 33/1/17
f 123/110/20 129/112/20 34/113/20 32/111/20
f 1/33/17 39/114/50 48/71/49
f 129/112/20 44/40/20 6/43/20 34/113/20
f 36/115/51 38/116/52 40/117/52 37/118/51
f 37/119/53 40/120/54 39/121/50 35/122/19
f 42/123/55 44/124/56 46/125/56 43/126/55
f 43/127/57 46/128/58 45/129/23 41/130/22
f 38/116/52 47/131/59 49/132/59 40/117/52
f 40/120/54 49/133/60 48/134/49 39/121/50
f 51/135/61 42/123/55 43/126/55 52/136/61
f 52/137/62 43/127/57 41/130/22 50/138/21
f 47/131/59 53/139/63 55/140/63 49/132/59
f 49/133/60 55/141/64 54/142/25 48/134/49
f 57/143/65 51/135/61 52/136/61 58/144/65
f 58/145/66 52/137/62 50/138/21 56/146/24
f 53/139/63 59/147/67 61/148/67 55/140/63
f 55/141/64 61/149/68 60/150/26 54/142/25
f 63/151/69 57/143/65 58/144/65 64/152/69
f 64/153/70 58/145/66 56/146/24 62/154/27
f 59/147/67 65/155/71 67/156/71 61/148/67
f 61/149/68 67/157/72 66/158/28 60/150/26
f 69/159/73 63/151/69 64/152/69 70/160/73
f 70/161/74 64/153/70 62/154/27 68/162/29
f 65/155/71 71/163/75 73/164/75 67/156/71
f 67/157/72 73/165/76 72/166/30 66/158/28
f 75/167/77 69/159/73 70/160/73 76/168/77
f 76/169/78 70/161/74 68/162/29 74/170/31
f 71/163/75 77/171/79 79/172/79 73/164/75
f 73/165/76 79/173/80 78/174/32 72/166/30
f 81/175/81 75/167/77 76/168/77 82/176/81
f 82/177/82 76/169/78 74/170/31 80/178/33
f 77/171/79 83/179/83 85/180/83 79/172/79
f 79/173/80 85/181/84 84/182/34 78/174/32
f 87/183/85 81/175/81 82/176/81 88/184/85
f 88/185/86 82/177/82 80/178/33 86/186/35
f 83/179/83 89/187/87 91/188/87 85/180/83
f 85/181/84 91/189/88 90/190/36 84/182/34
f 93/191/89 87/183/85 88/184/85 94/192/89
f 94/193/90 88/185/86 86/186/35 92/194/37
f 89/187/87 95/195/91 97/196/91 91/188/87
f 91/189/88 97/197/92 96/198/38 90/190/36
f 99/199/93 93/191/89 94/192/89 100/200/93
f 100/201/94 94/193/90 92/194/37 98/202/39
f 95/195/91 101/203/95 103/204/95 97/196/91
f 97/197/92 103/205/96 102/206/40 96/198/38
f 105/207/97 99/199/93 100/200/93 106/208/97
f 106/209/98 100/201/94 98/202/39 104/210/41
f 101/203/95 107/211/99 109/212/99 103/204/95
f 103/205/96 109/213/100 108/214/42 102/206/40
f 111/215/101 105/207/97 106/208/97 112/216/101
f 112/217/102 106/209/98 104/210/41 110/218/43
f 107/211/99 113/219/103 115/220/103 109/212/99
f 109/213/100 115/221/104 114/222/44 108/214/42
f 117/223/105 111/215/101 112/216/101 118/224/105
f 118/225/106 112/217/102 110/218/43 116/226/45
f 113/219/103 119/227/107 121/228/107 115/220/103
f 115/221/104 121/229/108 120/230/46 114/222/44
f 123/231/109 117/223/105 118/224/105 124/232/109
f 124/233/110 118/225/106 116/226/45 122/234/47
f 119/227/107 125/235/111 127/236/111 121/228/107
f 121/229/108 127/237/112 126/238/18 120/230/46
f 129/239/113 123/231/109 124/232/109 130/240/113
f 130/241/114 124/233/110 122/234/47 128/242/48
f 125/235/111 36/115/51 37/118/51 127/236/111
f 127/237/112 37/119/53 35/122/19 126/238/18
f 44/124/56 129/239/113 130/240/113 46/125/56
f 46/128/58 130/241/114 128/242/48 45/129/23
f 1/33/17 35/35/19 39/114/50
f 4/32/16 133/31/16 135/6/3 7/5/3
f 160/243/115 32/111/115 34/113/116 162/244/116
f 158/245/117 30/108/117 32/111/115 160/243/115
f 156/246/118 28/105/118 30/108/117 158/245/117
f 154/247/119 26/102/119 28/105/118 156/246/118
f 152/248/120 24/99/120 26/102/119 154/247/119
f 150/249/121 22/96/121 24/99/120 152/248/120
f 148/250/122 20/93/122 22/96/121 150/249/121
f 146/251/123 18/90/123 20/93/122 148/250/122
f 144/252/124 16/87/124 18/90/123 146/251/123
f 142/253/125 14/84/125 16/87/124 144/252/124
f 140/254/126 12/81/126 14/84/125 142/253/125
f 138/255/127 10/78/127 12/81/126 140/254/126
f 136/256/128 8/74/128 10/78/127 138/255/127
f 134/257/129 5/42/129 8/74/128 136/256/128
f 131/258/130 6/43/130 5/42/129 134/257/129
f 162/259/131 131/260/132 132/261/132 161/262/131
f 160/263/133 162/259/131 161/262/131 159/264/133
f 158/265/134 160/263/133 159/264/133 157/266/134
f 156/267/135 158/265/134 157/266/134 155/268/135
f 154/269/136 156/267/135 155/268/135 153/270/136
f 152/271/137 154/269/136 153/270/136 151/272/137
f 150/273/138 152/271/137 151/272/137 149/274/138
f 148/275/139 150/273/138 149/274/138 147/276/139
f 146/277/140 148/275/139 147/276/139 145/278/140
f 144/279/141 146/277/140 145/278/140 143/280/141
f 142/281/142 144/279/141 143/280/141 141/282/142
f 140/283/143 142/281/142 141/282/142 139/284/143
f 138/285/144 140/283/143 139/284/143 137/286/144
f 136/287/145 138/285/144 137/286/144 135/288/145
f 134/289/146 136/287/145 135/288/145 133/290/146
f 131/260/132 134/289/146 133/290/146 132/261/132
f 162/244/116 34/113/116 6/43/130 131/258/130
