# Blender v3.4.1 OBJ File: 'Board_game_bits_export.blend'
# www.blender.org
mtllib cube_gold.mtl
o cube_gold
v -0.210000 0.000000 0.210000
v -0.210000 0.040000 0.250000
v -0.250000 0.040000 0.210000
v -0.210000 0.011716 0.238284
v -0.233094 0.016906 0.233094
v -0.238284 0.040000 0.238284
v -0.238284 0.011716 0.210000
v -0.210000 0.460000 0.250000
v -0.210000 0.500000 0.210000
v -0.250000 0.460000 0.210000
v -0.210000 0.488284 0.238284
v -0.233094 0.483094 0.233094
v -0.238284 0.488284 0.210000
v -0.238284 0.460000 0.238284
v -0.210000 0.000000 -0.210000
v -0.250000 0.040000 -0.210000
v -0.210000 0.040000 -0.250000
v -0.238284 0.011716 -0.210000
v -0.233094 0.016906 -0.233094
v -0.238284 0.040000 -0.238284
v -0.210000 0.011716 -0.238284
v -0.210000 0.500000 -0.210000
v -0.210000 0.460000 -0.250000
v -0.250000 0.460000 -0.210000
v -0.210000 0.488284 -0.238284
v -0.233094 0.483094 -0.233094
v -0.238284 0.460000 -0.238284
v -0.238284 0.488284 -0.210000
v 0.210000 0.000000 0.210000
v 0.250000 0.040000 0.210000
v 0.210000 0.040000 0.250000
v 0.238284 0.011716 0.210000
v 0.233094 0.016906 0.233094
v 0.238284 0.040000 0.238284
v 0.210000 0.011716 0.238284
v 0.210000 0.500000 0.210000
v 0.210000 0.460000 0.250000
v 0.250000 0.460000 0.210000
v 0.210000 0.488284 0.238284
v 0.233094 0.483094 0.233094
v 0.238284 0.460000 0.238284
v 0.238284 0.488284 0.210000
v 0.210000 0.000000 -0.210000
v 0.210000 0.040000 -0.250000
v 0.250000 0.040000 -0.210000
v 0.210000 0.011716 -0.238284
v 0.233094 0.016906 -0.233094
v 0.238284 0.040000 -0.238284
v 0.238284 0.011716 -0.210000
v 0.210000 0.500000 -0.210000
v 0.250000 0.460000 -0.210000
v 0.210000 0.460000 -0.250000
v 0.238284 0.488284 -0.210000
v 0.233094 0.483094 -0.233094
v 0.238284 0.460000 -0.238284
v 0.210000 0.488284 -0.238284
vt 0.354314 0.527122
vt 0.354314 0.646029
vt 0.270686 0.646029
vt 0.270686 0.527122
vt 0.362278 0.527122
vt 0.362278 0.646029
vt 0.362278 0.646029
vt 0.362278 0.527122
vt 0.354314 0.657354
vt 0.270686 0.657354
vt 0.270686 0.657354
vt 0.354314 0.657354
vt 0.262722 0.527122
vt 0.262722 0.646029
vt 0.262722 0.646029
vt 0.262722 0.527122
vt 0.270686 0.527122
vt 0.270686 0.646029
vt 0.354314 0.646029
vt 0.354314 0.527122
vt 0.270686 0.515798
vt 0.270686 0.597700
vt 0.266088 0.599169
vt 0.265054 0.597700
vt 0.265054 0.605708
vt 0.270686 0.732622
vt 0.266088 0.731153
vt 0.265054 0.724615
vt 0.265054 0.732622
vt 0.270686 0.515798
vt 0.265054 0.597700
vt 0.266088 0.599169
vt 0.270686 0.597700
vt 0.265054 0.605708
vt 0.270686 0.732622
vt 0.266088 0.731153
vt 0.265054 0.732622
vt 0.265054 0.724615
vt 0.354314 0.515798
vt 0.359946 0.597700
vt 0.358912 0.599169
vt 0.354314 0.597700
vt 0.359946 0.605708
vt 0.354314 0.732622
vt 0.358912 0.731153
vt 0.359946 0.732622
vt 0.359946 0.724615
vt 0.354314 0.515798
vt 0.354314 0.597700
vt 0.358912 0.599169
vt 0.359946 0.597700
vt 0.359946 0.605708
vt 0.359946 0.732622
vt 0.358912 0.731153
vt 0.354314 0.732622
vt 0.359946 0.724615
vn 0.1794 -0.1794 0.9673
vn 0.1794 0.1794 0.9673
vn -0.1794 0.1794 0.9673
vn -0.1794 -0.1794 0.9673
vn 0.9673 -0.1794 -0.1794
vn 0.9673 0.1794 -0.1794
vn 0.9673 0.1794 0.1794
vn 0.9673 -0.1794 0.1794
vn 0.1794 0.9673 -0.1794
vn -0.1794 0.9673 -0.1794
vn -0.1794 0.9673 0.1794
vn 0.1794 0.9673 0.1794
vn -0.9673 -0.1794 0.1794
vn -0.9673 0.1794 0.1794
vn -0.9673 0.1794 -0.1794
vn -0.9673 -0.1794 -0.1794
vn -0.1794 -0.1794 -0.9673
vn -0.1794 0.1794 -0.9673
vn 0.1794 0.1794 -0.9673
vn 0.1794 -0.1794 -0.9673
vn -0.1794 -0.9673 0.1794
vn -0.1726 -0.6965 0.6965
vn -0.5774 -0.5774 0.5774
vn -0.6965 -0.6965 0.1726
vn -0.6965 -0.1726 0.6965
vn -0.1726 0.6965 0.6965
vn -0.5774 0.5774 0.5774
vn -0.6965 0.1726 0.6965
vn -0.6965 0.6965 0.1726
vn -0.1794 -0.9673 -0.1794
vn -0.6965 -0.6965 -0.1726
vn -0.5774 -0.5774 -0.5774
vn -0.1726 -0.6965 -0.6965
vn -0.6965 -0.1726 -0.6965
vn -0.1726 0.6965 -0.6965
vn -0.5774 0.5774 -0.5774
vn -0.6965 0.6965 -0.1726
vn -0.6965 0.1726 -0.6965
vn 0.1794 -0.9673 0.1794
vn 0.6965 -0.6965 0.1726
vn 0.5774 -0.5774 0.5774
vn 0.1726 -0.6965 0.6965
vn 0.6965 -0.1726 0.6965
vn 0.1726 0.6965 0.6965
vn 0.5774 0.5774 0.5774
vn 0.6965 0.6965 0.1726
vn 0.6965 0.1726 0.6965
vn 0.1794 -0.9673 -0.1794
vn 0.1726 -0.6965 -0.6965
vn 0.5774 -0.5774 -0.5774
vn 0.6965 -0.6965 -0.1726
vn 0.6965 -0.1726 -0.6965
vn 0.6965 0.6965 -0.1726
vn 0.5774 0.5774 -0.5774
vn 0.1726 0.6965 -0.6965
vn 0.6965 0.1726 -0.6965
usemtl boardgame_metallic
s 1
f 31/1/1 37/2/2 8/3/3 2/4/4
f 45/5/5 51/6/6 38/7/7 30/8/8
f 50/9/9 22/10/10 9/11/11 36/12/12
f 3/13/13 10/14/14 24/15/15 16/16/16
f 17/17/17 23/18/18 52/19/19 44/20/20
f 1/21/21 4/22/22 5/23/23 7/24/24
f 2/4/4 6/25/25 5/23/23 4/22/22
f 3/13/13 7/24/24 5/23/23 6/25/25
f 8/3/3 11/26/26 12/27/27 14/28/28
f 9/11/11 13/29/29 12/27/27 11/26/26
f 10/14/14 14/28/28 12/27/27 13/29/29
f 15/30/30 18/31/31 19/32/32 21/33/33
f 16/16/16 20/34/34 19/32/32 18/31/31
f 17/17/17 21/33/33 19/32/32 20/34/34
f 22/10/10 25/35/35 26/36/36 28/37/37
f 23/18/18 27/38/38 26/36/36 25/35/35
f 24/15/15 28/37/37 26/36/36 27/38/38
f 29/39/39 32/40/40 33/41/41 35/42/42
f 30/8/8 34/43/43 33/41/41 32/40/40
f 31/1/1 35/42/42 33/41/41 34/43/43
f 36/12/12 39/44/44 40/45/45 42/46/46
f 37/2/2 41/47/47 40/45/45 39/44/44
f 38/7/7 42/46/46 40/45/45 41/47/47
f 43/48/48 46/49/49 47/50/50 49/51/51
f 44/20/20 48/52/52 47/50/50 46/49/49
f 45/5/5 49/51/51 47/50/50 48/52/52
f 50/9/9 53/53/53 54/54/54 56/55/55
f 51/6/6 55/56/56 54/54/54 53/53/53
f 52/19/19 56/55/55 54/54/54 55/56/56
f 15/30/30 1/21/21 7/24/24 18/31/31
f 18/31/31 7/24/24 3/13/13 16/16/16
f 2/4/4 8/3/3 14/28/28 6/25/25
f 6/25/25 14/28/28 10/14/14 3/13/13
f 9/11/11 22/10/10 28/37/37 13/29/29
f 13/29/29 28/37/37 24/15/15 10/14/14
f 23/18/18 17/17/17 20/34/34 27/38/38
f 27/38/38 20/34/34 16/16/16 24/15/15
f 43/48/48 15/30/30 21/33/33 46/49/49
f 46/49/49 21/33/33 17/17/17 44/20/20
f 22/10/10 50/9/9 56/55/55 25/35/35
f 25/35/35 56/55/55 52/19/19 23/18/18
f 51/6/6 45/5/5 48/52/52 55/56/56
f 55/56/56 48/52/52 44/20/20 52/19/19
f 29/39/39 43/48/48 49/51/51 32/40/40
f 32/40/40 49/51/51 45/5/5 30/8/8
f 50/9/9 36/12/12 42/46/46 53/53/53
f 53/53/53 42/46/46 38/7/7 51/6/6
f 37/2/2 31/1/1 34/43/43 41/47/47
f 41/47/47 34/43/43 30/8/8 38/7/7
f 1/21/21 29/39/39 35/42/42 4/22/22
f 4/22/22 35/42/42 31/1/1 2/4/4
f 36/12/12 9/11/11 11/26/26 39/44/44
f 39/44/44 11/26/26 8/3/3 37/2/2
f 15/30/30 43/48/48 29/39/39 1/21/21
