# Blender v3.4.1 OBJ File: 'Board_game_bits_export.blend'
# www.blender.org
mtllib D4_green.mtl
o D4_green
v -0.018154 0.569448 0.010479
v -0.000004 0.569448 -0.020958
v 0.018146 0.569448 0.010479
v -0.016597 0.575587 -0.009580
v -0.000004 0.587321 -0.000000
v 0.016589 0.575587 -0.009580
v -0.000004 0.575587 0.019159
v -0.000004 -0.209575 0.529895
v -0.018154 -0.179937 0.540374
v 0.018146 -0.179937 0.540374
v -0.016597 -0.200894 0.539475
v -0.000004 -0.195774 0.553731
v -0.000004 -0.173798 0.549055
v 0.016589 -0.200894 0.539475
v 0.458899 -0.209575 -0.264948
v 0.477049 -0.179937 -0.254469
v 0.458899 -0.179937 -0.285905
v 0.475492 -0.200894 -0.255368
v 0.479542 -0.195774 -0.276866
v 0.475492 -0.173798 -0.274528
v 0.458899 -0.200894 -0.284108
v -0.477056 -0.179937 -0.254469
v -0.458907 -0.209575 -0.264948
v -0.458907 -0.179937 -0.285905
v -0.475499 -0.200894 -0.255368
v -0.479549 -0.195774 -0.276866
v -0.458907 -0.200894 -0.284108
v -0.475499 -0.173798 -0.274528
vt 0.625000 0.860781
vt 0.506361 0.655293
vt 0.743639 0.655293
vt 0.875000 0.860781
vt 0.756361 0.655293
vt 0.993639 0.655293
vt 0.375000 0.860781
vt 0.256361 0.655293
vt 0.493639 0.655293
vt 0.833102 0.970864
vt 0.920334 0.971473
vt 0.920334 0.972639
vt 0.920334 0.971473
vt 0.833102 0.970864
vt 0.920334 0.971473
vt 0.833102 0.970864
vt 0.833102 0.893497
vt 0.920334 0.894359
vt 0.920334 0.894868
vt 0.920334 0.894359
vt 0.833102 0.896441
vt 0.920334 0.897050
vt 0.833102 0.896441
vt 0.833102 0.893497
vt 0.920334 0.894359
vt 0.920334 0.894868
vt 0.920334 0.894359
vt 0.833102 0.896441
vt 0.920334 0.897050
vt 0.833102 0.896441
vt 0.833102 0.896441
vt 0.920334 0.897050
vt 0.920334 0.894868
vt 0.920334 0.894359
vt 0.833102 0.893497
vt 0.920334 0.894359
vt 0.833102 0.896441
vt 0.125000 0.860781
vt 0.006361 0.655293
vt 0.243639 0.655293
vn -0.0000 0.5785 -0.8157
vn 0.2369 0.1917 -0.9524
vn -0.2369 0.1917 -0.9524
vn -0.0000 -0.9619 0.2736
vn -0.2369 -0.9619 -0.1368
vn 0.2369 -0.9619 -0.1368
vn 0.7064 0.5785 0.4078
vn 0.7064 0.1917 0.6814
vn 0.9433 0.1917 0.2710
vn -0.7064 0.5785 0.4078
vn -0.5467 0.6380 0.5423
vn -0.5620 0.7609 0.3244
vn -0.7430 0.6380 0.2023
vn -0.1963 0.6380 -0.7446
vn -0.0000 0.7609 -0.6489
vn 0.1963 0.6380 -0.7446
vn 0.7430 0.6380 0.2023
vn 0.5620 0.7609 0.3244
vn 0.5467 0.6380 0.5423
vn 0.1963 -0.9147 0.3533
vn -0.0000 -0.8654 0.5011
vn -0.1963 -0.9147 0.3533
vn -0.7064 0.1917 0.6814
vn -0.7430 -0.0219 0.6689
vn -0.5619 0.0523 0.8255
vn -0.5467 0.2986 0.7823
vn 0.5467 0.2986 0.7823
vn 0.5619 0.0523 0.8255
vn 0.7430 -0.0219 0.6689
vn 0.2078 -0.9147 -0.3466
vn 0.4339 -0.8654 -0.2505
vn 0.4041 -0.9147 -0.0067
vn 0.9508 -0.0219 0.3090
vn 0.9959 0.0523 0.0739
vn 0.9508 0.2986 0.0823
vn 0.4041 0.2986 -0.8646
vn 0.4339 0.0523 -0.8994
vn 0.2078 -0.0219 -0.9779
vn -0.9433 0.1917 0.2710
vn -0.9508 0.2986 0.0823
vn -0.9959 0.0523 0.0739
vn -0.9508 -0.0219 0.3090
vn -0.4041 -0.9147 -0.0067
vn -0.4339 -0.8654 -0.2505
vn -0.2078 -0.9147 -0.3466
vn -0.2078 -0.0219 -0.9779
vn -0.4339 0.0523 -0.8994
vn -0.4041 0.2986 -0.8646
usemtl dice_green
s 1
f 2/1/1 17/2/2 24/3/3
f 8/4/4 23/5/5 15/6/6
f 3/7/7 10/8/8 16/9/9
f 1/10/10 7/11/11 5/12/12 4/13/13
f 2/14/1 4/13/14 5/12/15 6/15/16
f 3/16/7 6/15/17 5/12/18 7/11/19
f 8/17/4 14/18/20 12/19/21 11/20/22
f 9/21/23 11/20/24 12/19/25 13/22/26
f 10/23/8 13/22/27 12/19/28 14/18/29
f 15/24/6 21/25/30 19/26/31 18/27/32
f 16/28/9 18/27/33 19/26/34 20/29/35
f 17/30/2 20/29/36 19/26/37 21/25/38
f 22/31/39 28/32/40 26/33/41 25/34/42
f 23/35/5 25/34/43 26/33/44 27/36/45
f 24/37/3 27/36/46 26/33/47 28/32/48
f 10/23/8 14/18/29 18/27/33 16/28/9
f 14/18/20 8/17/4 15/24/6 18/27/32
f 3/16/7 7/11/19 13/22/27 10/23/8
f 7/11/11 1/10/10 9/21/23 13/22/26
f 2/14/1 6/15/16 20/29/36 17/30/2
f 6/15/17 3/16/7 16/28/9 20/29/35
f 1/10/10 4/13/13 28/32/40 22/31/39
f 4/13/14 2/14/1 24/37/3 28/32/48
f 17/30/2 21/25/38 27/36/46 24/37/3
f 21/25/30 15/24/6 23/35/5 27/36/45
f 8/17/4 11/20/22 25/34/43 23/35/5
f 11/20/24 9/21/23 22/31/39 25/34/42
f 1/38/10 22/39/39 9/40/23
