# Blender v3.4.1 OBJ File: 'Board_game_bits_export.blend'
# www.blender.org
mtllib D8_yellow.mtl
o D8_yellow
v 0.021526 0.484233 -0.021526
v 0.021526 0.484233 0.021526
v -0.021526 0.484233 0.021526
v -0.021526 0.484233 -0.021526
v 0.025985 0.488692 0.000000
v 0.000000 0.500000 0.000000
v 0.000000 0.488692 0.025985
v -0.025985 0.488692 0.000000
v -0.000000 0.488692 -0.025985
v 0.021526 0.021526 -0.484233
v -0.021526 0.021526 -0.484233
v -0.021526 -0.021526 -0.484233
v 0.021526 -0.021526 -0.484233
v 0.000000 0.025985 -0.488692
v 0.000000 0.000000 -0.500000
v -0.025985 -0.000000 -0.488692
v -0.000000 -0.025985 -0.488692
v 0.025985 0.000000 -0.488692
v -0.484233 -0.021526 0.021526
v -0.484233 -0.021526 -0.021526
v -0.484233 0.021526 -0.021526
v -0.484233 0.021526 0.021526
v -0.488692 -0.025985 0.000000
v -0.500000 0.000000 -0.000000
v -0.488692 0.000000 -0.025985
v -0.488692 0.025985 -0.000000
v -0.488692 -0.000000 0.025985
v -0.021526 -0.021526 0.484233
v -0.021526 0.021526 0.484233
v 0.021526 0.021526 0.484233
v 0.021526 -0.021526 0.484233
v -0.025985 0.000000 0.488692
v -0.000000 0.000000 0.500000
v -0.000000 0.025985 0.488692
v 0.025985 -0.000000 0.488692
v 0.000000 -0.025985 0.488692
v 0.484233 0.021526 -0.021526
v 0.484233 -0.021526 -0.021526
v 0.484233 -0.021526 0.021526
v 0.484233 0.021526 0.021526
v 0.488692 -0.000000 -0.025985
v 0.500000 0.000000 0.000000
v 0.488692 -0.025985 -0.000000
v 0.488692 0.000000 0.025985
v 0.488692 0.025985 0.000000
v 0.021526 -0.484233 -0.021526
v -0.021526 -0.484233 -0.021526
v -0.021526 -0.484233 0.021526
v 0.021526 -0.484233 0.021526
v 0.000000 -0.488692 -0.025985
v -0.000000 -0.500000 -0.000000
v -0.025985 -0.488692 0.000000
v 0.000000 -0.488692 0.025985
v 0.025985 -0.488692 0.000000
vt 0.062500 0.622489
vt 0.002511 0.518585
vt 0.122489 0.518585
vt 0.312500 0.622489
vt 0.252511 0.518585
vt 0.372489 0.518585
vt 0.997489 0.518585
vt 0.937500 0.622489
vt 0.877511 0.518585
vt 0.812500 0.622489
vt 0.752511 0.518585
vt 0.872489 0.518585
vt 0.497489 0.518585
vt 0.437500 0.622489
vt 0.377511 0.518585
vt 0.247489 0.518585
vt 0.187500 0.622489
vt 0.127511 0.518585
vt 0.747489 0.518585
vt 0.687500 0.622489
vt 0.627511 0.518585
vt 0.833102 0.983597
vt 0.920334 0.983988
vt 0.920334 0.984977
vt 0.920334 0.983988
vt 0.833102 0.983597
vt 0.920334 0.983988
vt 0.833102 0.983597
vt 0.920334 0.983988
vt 0.833102 0.983597
vt 0.833102 0.943109
vt 0.920334 0.941225
vt 0.920334 0.941225
vt 0.920334 0.943499
vt 0.833102 0.943109
vt 0.920334 0.941225
vt 0.833102 0.939342
vt 0.920334 0.938951
vt 0.833102 0.939342
vt 0.833102 0.939342
vt 0.920334 0.941225
vt 0.920334 0.941225
vt 0.920334 0.938951
vt 0.833102 0.939342
vt 0.920334 0.941225
vt 0.833102 0.943109
vt 0.920334 0.943499
vt 0.833102 0.943109
vt 0.833102 0.939342
vt 0.920334 0.938951
vt 0.920334 0.941225
vt 0.920334 0.941225
vt 0.833102 0.943109
vt 0.920334 0.943499
vt 0.833102 0.943109
vt 0.920334 0.941225
vt 0.833102 0.939342
vt 0.833102 0.943109
vt 0.920334 0.943499
vt 0.920334 0.941225
vt 0.920334 0.941225
vt 0.833102 0.939342
vt 0.920334 0.938951
vt 0.833102 0.939342
vt 0.920334 0.941225
vt 0.833102 0.943109
vt 0.833102 0.898853
vt 0.920334 0.898463
vt 0.920334 0.897473
vt 0.920334 0.898463
vt 0.833102 0.898853
vt 0.920334 0.898463
vt 0.833102 0.898853
vt 0.920334 0.898463
vt 0.833102 0.898853
vt 0.562500 0.622489
vt 0.502511 0.518585
vt 0.622489 0.518585
vn -0.4645 0.7539 0.4645
vn -0.7539 0.4645 0.4645
vn -0.4645 0.4645 0.7539
vn 0.4645 0.7539 0.4645
vn 0.4645 0.4645 0.7539
vn 0.7539 0.4645 0.4645
vn 0.7539 -0.4645 -0.4645
vn 0.4645 -0.7539 -0.4645
vn 0.4645 -0.4645 -0.7539
vn -0.4645 0.7539 -0.4645
vn -0.4645 0.4645 -0.7539
vn -0.7539 0.4645 -0.4645
vn -0.7539 -0.4645 0.4645
vn -0.4645 -0.7539 0.4645
vn -0.4645 -0.4645 0.7539
vn 0.4645 -0.4645 0.7539
vn 0.4645 -0.7539 0.4645
vn 0.7539 -0.4645 0.4645
vn -0.4645 -0.4645 -0.7539
vn -0.4645 -0.7539 -0.4645
vn -0.7539 -0.4645 -0.4645
vn 0.4645 0.7539 -0.4645
vn -0.0000 0.8379 -0.5458
vn 0.0000 1.0000 0.0000
vn 0.5458 0.8379 -0.0000
vn 0.0000 0.8379 0.5458
vn -0.5458 0.8379 0.0000
vn 0.4645 0.4645 -0.7539
vn 0.5458 0.0000 -0.8379
vn -0.0000 0.0000 -1.0000
vn -0.0000 0.5458 -0.8379
vn -0.5458 0.0000 -0.8379
vn 0.0000 -0.5458 -0.8379
vn -0.8379 0.0000 0.5458
vn -1.0000 0.0000 0.0000
vn -0.8379 -0.5458 -0.0000
vn -0.8379 0.0000 -0.5458
vn -0.8379 0.5458 0.0000
vn -0.0000 -0.5458 0.8379
vn 0.0000 0.0000 1.0000
vn -0.5458 0.0000 0.8379
vn 0.0000 0.5458 0.8379
vn 0.5458 0.0000 0.8379
vn 0.7539 0.4645 -0.4645
vn 0.8379 0.5458 -0.0000
vn 1.0000 0.0000 -0.0000
vn 0.8379 0.0000 -0.5458
vn 0.8379 -0.5458 0.0000
vn 0.8379 0.0000 0.5458
vn 0.5458 -0.8379 0.0000
vn 0.0000 -1.0000 0.0000
vn 0.0000 -0.8379 -0.5458
vn -0.5458 -0.8379 -0.0000
vn -0.0000 -0.8379 0.5458
usemtl dice_yellow
s 1
f 3/1/1 22/2/2 29/3/3
f 2/4/4 30/5/5 40/6/6
f 38/7/7 46/8/8 13/9/9
f 4/10/10 11/11/11 21/12/12
f 19/13/13 48/14/14 28/15/15
f 31/16/16 49/17/17 39/18/18
f 12/19/19 47/20/20 20/21/21
f 1/22/22 9/23/23 6/24/24 5/25/25
f 2/26/4 5/25/25 6/24/24 7/27/26
f 3/28/1 7/27/26 6/24/24 8/29/27
f 4/30/10 8/29/27 6/24/24 9/23/23
f 10/31/28 18/32/29 15/33/30 14/34/31
f 11/35/11 14/34/31 15/33/30 16/36/32
f 12/37/19 16/36/32 15/33/30 17/38/33
f 13/39/9 17/38/33 15/33/30 18/32/29
f 19/40/13 27/41/34 24/42/35 23/43/36
f 20/44/21 23/43/36 24/42/35 25/45/37
f 21/46/12 25/45/37 24/42/35 26/47/38
f 22/48/2 26/47/38 24/42/35 27/41/34
f 28/49/15 36/50/39 33/51/40 32/52/41
f 29/53/3 32/52/41 33/51/40 34/54/42
f 30/55/5 34/54/42 33/51/40 35/56/43
f 31/57/16 35/56/43 33/51/40 36/50/39
f 37/58/44 45/59/45 42/60/46 41/61/47
f 38/62/7 41/61/47 42/60/46 43/63/48
f 39/64/18 43/63/48 42/60/46 44/65/49
f 40/66/6 44/65/49 42/60/46 45/59/45
f 46/67/8 54/68/50 51/69/51 50/70/52
f 47/71/20 50/70/52 51/69/51 52/72/53
f 48/73/14 52/72/53 51/69/51 53/74/54
f 49/75/17 53/74/54 51/69/51 54/68/50
f 22/48/2 27/41/34 32/52/41 29/53/3
f 27/41/34 19/40/13 28/49/15 32/52/41
f 4/30/10 9/23/23 14/34/31 11/35/11
f 9/23/23 1/22/22 10/31/28 14/34/31
f 3/28/1 8/29/27 26/47/38 22/48/2
f 8/29/27 4/30/10 21/46/12 26/47/38
f 2/26/4 7/27/26 34/54/42 30/55/5
f 7/27/26 3/28/1 29/53/3 34/54/42
f 1/22/22 5/25/25 45/59/45 37/58/44
f 5/25/25 2/26/4 40/66/6 45/59/45
f 12/37/19 17/38/33 50/70/52 47/71/20
f 17/38/33 13/39/9 46/67/8 50/70/52
f 19/40/13 23/43/36 52/72/53 48/73/14
f 23/43/36 20/44/21 47/71/20 52/72/53
f 30/55/5 35/56/43 44/65/49 40/66/6
f 35/56/43 31/57/16 39/64/18 44/65/49
f 31/57/16 36/50/39 53/74/54 49/75/17
f 36/50/39 28/49/15 48/73/14 53/74/54
f 11/35/11 16/36/32 25/45/37 21/46/12
f 16/36/32 12/37/19 20/44/21 25/45/37
f 38/62/7 43/63/48 54/68/50 46/67/8
f 43/63/48 39/64/18 49/75/17 54/68/50
f 37/58/44 41/61/47 18/32/29 10/31/28
f 41/61/47 38/62/7 13/39/9 18/32/29
f 1/76/22 37/77/44 10/78/28
