# Blender v3.4.1 OBJ File: 'Board_game_bits_export.blend'
# www.blender.org
mtllib flag_A_red.mtl
o flag_A_red
v -0.000001 0.000000 0.000000
v 0.143506 0.021776 -0.346455
v 0.130761 0.000000 -0.315686
v -0.000001 0.000000 -0.341696
v -0.000001 0.021776 -0.375000
v 0.265164 0.021776 -0.265165
v 0.241615 0.000000 -0.241616
v 0.346454 0.021776 -0.143506
v 0.315685 0.000000 -0.130761
v 0.374999 0.021776 0.000000
v 0.341695 0.000000 0.000000
v 0.346454 0.021776 0.143506
v 0.315685 0.000000 0.130761
v 0.265164 0.021776 0.265165
v 0.241615 0.000000 0.241616
v 0.143506 0.021776 0.346455
v 0.130761 0.000000 0.315686
v -0.000001 0.021776 0.375000
v -0.000001 0.000000 0.341696
v -0.143507 0.021776 0.346455
v -0.130762 0.000000 0.315686
v -0.265166 0.021776 0.265165
v -0.241616 0.000000 0.241616
v -0.346456 0.021776 0.143506
v -0.315687 0.000000 0.130761
v -0.375001 0.021776 -0.000000
v -0.341697 0.000000 -0.000000
v -0.346456 0.021776 -0.143506
v -0.315687 0.000000 -0.130762
v -0.265166 0.021776 -0.265165
v -0.241616 0.000000 -0.241616
v -0.143507 0.021776 -0.346455
v -0.130762 0.000000 -0.315686
v 0.129640 0.119875 -0.312980
v 0.143506 0.069641 -0.346455
v -0.000001 0.069641 -0.375000
v -0.000001 0.119875 -0.338768
v 0.239544 0.119875 -0.239545
v 0.265164 0.069641 -0.265165
v 0.312980 0.119875 -0.129641
v 0.346454 0.069641 -0.143506
v 0.338767 0.119875 0.000000
v 0.374999 0.069641 0.000000
v 0.312980 0.119875 0.129641
v 0.346454 0.069641 0.143506
v 0.239544 0.119875 0.239545
v 0.265164 0.069641 0.265165
v 0.129640 0.119875 0.312980
v 0.143506 0.069641 0.346455
v -0.000001 0.119875 0.338767
v -0.000001 0.069641 0.375000
v -0.129641 0.119875 0.312980
v -0.143507 0.069641 0.346455
v -0.239546 0.119875 0.239545
v -0.265166 0.069641 0.265165
v -0.312981 0.119875 0.129641
v -0.346456 0.069641 0.143506
v -0.338768 0.119875 -0.000000
v -0.375001 0.069641 -0.000000
v -0.312981 0.119875 -0.129641
v -0.346456 0.069641 -0.143506
v -0.239545 0.119875 -0.239545
v -0.265166 0.069641 -0.265165
v -0.129641 0.119875 -0.312980
v -0.143507 0.069641 -0.346455
v 0.012786 0.738295 0.015936
v 0.012786 0.756529 0.032317
v 0.012786 1.274814 0.032317
v 0.012786 1.293048 0.015936
v 0.012786 0.756529 -0.032317
v 0.012786 0.738295 -0.015936
v 0.012786 1.293048 -0.015936
v 0.012786 1.274814 -0.032317
v 0.565363 1.008476 0.015936
v 0.565363 1.022867 0.015936
v 0.542787 1.015671 0.032317
v 0.542787 1.015671 -0.032317
v 0.565363 1.022867 -0.015936
v 0.565363 1.008476 -0.015936
v 0.000000 1.395926 -0.074314
v 0.000000 1.361830 -0.097096
v 0.000000 1.281393 -0.097096
v 0.015391 1.418707 -0.037157
v 0.028439 1.395926 -0.068658
v 0.037157 1.361830 -0.089705
v 0.040219 1.321611 -0.097096
v 0.037157 1.281393 -0.089705
v 0.028439 1.247297 -0.068658
v 0.028439 1.418707 -0.028439
v 0.052548 1.395926 -0.052548
v 0.068657 1.361830 -0.068658
v 0.074314 1.321611 -0.074314
v 0.068657 1.281393 -0.068658
v 0.052548 1.247297 -0.052548
v 0.037157 1.418707 -0.015391
v 0.068657 1.395926 -0.028439
v 0.089705 1.361830 -0.037157
v 0.097096 1.321611 -0.040219
v 0.089705 1.281393 -0.037157
v 0.068657 1.247297 -0.028439
v 0.040219 1.418707 -0.000000
v 0.074314 1.395926 -0.000000
v 0.097096 1.361830 -0.000000
v 0.105096 1.321611 -0.000000
v 0.097096 1.281393 -0.000000
v 0.074314 1.247297 -0.000000
v 0.037157 1.418707 0.015391
v 0.068657 1.395926 0.028439
v 0.089705 1.361830 0.037157
v 0.097096 1.321611 0.040218
v 0.089705 1.281393 0.037157
v 0.068657 1.247297 0.028439
v 0.028439 1.418707 0.028439
v 0.052548 1.395926 0.052548
v 0.068657 1.361830 0.068657
v 0.074314 1.321611 0.074314
v 0.068657 1.281393 0.068657
v 0.052548 1.247297 0.052548
v 0.015391 1.418707 0.037157
v 0.028439 1.395926 0.068657
v 0.037157 1.361830 0.089705
v 0.040219 1.321611 0.097096
v 0.037157 1.281393 0.089705
v 0.028439 1.247297 0.068657
v 0.000000 1.426708 -0.000000
v 0.000000 1.418707 0.040218
v 0.000000 1.395926 0.074314
v 0.000000 1.361830 0.097096
v 0.000000 1.321611 0.105096
v 0.000000 1.281393 0.097096
v 0.000000 1.247297 0.074314
v -0.015391 1.418707 0.037157
v -0.028439 1.395926 0.068657
v -0.037157 1.361830 0.089705
v -0.040218 1.321611 0.097096
v -0.037157 1.281393 0.089705
v -0.028439 1.247297 0.068657
v -0.028439 1.418707 0.028439
v -0.052548 1.395926 0.052548
v -0.068657 1.361830 0.068657
v -0.074314 1.321611 0.074314
v -0.068657 1.281393 0.068657
v -0.052548 1.247297 0.052548
v -0.037157 1.418707 0.015391
v -0.068657 1.395926 0.028439
v -0.089705 1.361830 0.037157
v -0.097096 1.321611 0.040218
v -0.089705 1.281393 0.037157
v -0.068657 1.247297 0.028439
v -0.040218 1.418707 -0.000000
v -0.074314 1.395926 -0.000000
v -0.097096 1.361830 -0.000000
v -0.105096 1.321611 -0.000000
v -0.097096 1.281393 -0.000000
v -0.074314 1.247297 -0.000000
v -0.037157 1.418707 -0.015391
v -0.068657 1.395926 -0.028439
v -0.089705 1.361830 -0.037157
v -0.097096 1.321611 -0.040219
v -0.089705 1.281393 -0.037157
v -0.068657 1.247297 -0.028439
v -0.028439 1.418707 -0.028439
v -0.052548 1.395926 -0.052548
v -0.068657 1.361830 -0.068658
v -0.074314 1.321611 -0.074314
v -0.068657 1.281393 -0.068658
v -0.052548 1.247297 -0.052548
v -0.015391 1.418707 -0.037157
v -0.028439 1.395926 -0.068658
v -0.037157 1.361830 -0.089705
v -0.040218 1.321611 -0.097096
v -0.037157 1.281393 -0.089705
v -0.028439 1.247297 -0.068658
v 0.000000 1.418707 -0.040219
v 0.000000 1.321611 -0.105096
v 0.000000 1.247297 -0.074314
v 0.028439 0.127952 -0.068658
v 0.052548 0.127952 -0.052548
v 0.068657 0.127952 -0.028439
v 0.074314 0.127952 -0.000000
v 0.068657 0.127952 0.028439
v 0.052548 0.127952 0.052548
v 0.028439 0.127952 0.068657
v 0.000000 0.127952 0.074314
v -0.028439 0.127952 0.068657
v -0.052548 0.127952 0.052548
v -0.068657 0.127952 0.028439
v -0.074314 0.127952 -0.000000
v -0.068657 0.127952 -0.028439
v -0.052548 0.127952 -0.052548
v -0.028439 0.127952 -0.068658
v 0.000000 0.127952 -0.074314
vt 0.583486 0.831729
vt 0.573857 0.831729
vt 0.573857 0.827835
vt 0.583486 0.827835
vt 0.551143 0.831729
vt 0.541514 0.831729
vt 0.541514 0.827835
vt 0.551143 0.827835
vt 0.589919 0.831729
vt 0.589919 0.827835
vt 0.532822 0.831729
vt 0.535081 0.831729
vt 0.535081 0.827835
vt 0.532822 0.827835
vt 0.583486 0.831729
vt 0.589919 0.831729
vt 0.589919 0.827835
vt 0.583486 0.827835
vt 0.541514 0.831729
vt 0.551143 0.831729
vt 0.551143 0.827835
vt 0.541514 0.827835
vt 0.562500 0.831729
vt 0.562500 0.827835
vt 0.592178 0.831729
vt 0.592178 0.827835
vt 0.535081 0.831729
vt 0.535081 0.827835
vt 0.562500 0.831729
vt 0.562500 0.827835
vt 0.573857 0.831729
vt 0.573857 0.827835
vt 0.562500 0.778375
vt 0.572849 0.809625
vt 0.562500 0.809625
vt 0.537516 0.809625
vt 0.543378 0.809625
vt 0.581622 0.809625
vt 0.535457 0.809625
vt 0.587484 0.809625
vt 0.537516 0.809625
vt 0.589543 0.809625
vt 0.543378 0.809625
vt 0.587484 0.809625
vt 0.552151 0.809625
vt 0.581622 0.809625
vt 0.552151 0.809625
vt 0.562500 0.809625
vt 0.572849 0.809625
vt 0.562500 0.812210
vt 0.573857 0.812210
vt 0.583486 0.812210
vt 0.589919 0.812210
vt 0.592178 0.812210
vt 0.589919 0.812210
vt 0.583486 0.812210
vt 0.573857 0.812210
vt 0.562500 0.812210
vt 0.551143 0.812210
vt 0.541514 0.812210
vt 0.535081 0.812210
vt 0.532822 0.812210
vt 0.535081 0.812210
vt 0.541514 0.812210
vt 0.551143 0.812210
vt 0.562500 0.842619
vt 0.572760 0.842619
vt 0.581458 0.842619
vt 0.587270 0.842619
vt 0.589311 0.842619
vt 0.587270 0.842619
vt 0.581458 0.842619
vt 0.572760 0.842619
vt 0.562500 0.842619
vt 0.552240 0.842619
vt 0.543542 0.842619
vt 0.537730 0.842619
vt 0.535689 0.842619
vt 0.537730 0.842619
vt 0.543542 0.842619
vt 0.552240 0.842619
vt 0.579388 0.889694
vt 0.580779 0.889694
vt 0.555505 0.889694
vt 0.562500 0.889694
vt 0.569495 0.889694
vt 0.575426 0.889694
vt 0.545612 0.889694
vt 0.544221 0.889694
vt 0.545612 0.889694
vt 0.562500 0.889694
vt 0.555505 0.889694
vt 0.579388 0.889694
vt 0.575426 0.889694
vt 0.549574 0.889694
vt 0.549574 0.889694
vt 0.569495 0.889694
vt 0.611780 0.865910
vt 0.590461 0.886252
vt 0.590461 0.886252
vt 0.611780 0.865910
vt 0.610909 0.865368
vt 0.590461 0.884879
vt 0.590461 0.845856
vt 0.590461 0.845856
vt 0.590461 0.884879
vt 0.610909 0.865368
vt 0.611780 0.864826
vt 0.611780 0.864826
vt 0.590461 0.844483
vt 0.590461 0.844483
vt 0.562500 0.907973
vt 0.562500 0.917866
vt 0.571640 0.917866
vt 0.572393 0.907973
vt 0.562500 0.926253
vt 0.562500 0.963107
vt 0.566286 0.963107
vt 0.569495 0.926253
vt 0.562500 0.898081
vt 0.571640 0.898081
vt 0.562500 0.965074
vt 0.562500 0.889694
vt 0.569495 0.889694
vt 0.580779 0.907973
vt 0.579388 0.898081
vt 0.575426 0.926253
vt 0.579388 0.917866
vt 0.569495 0.963107
vt 0.575426 0.889694
vt 0.571640 0.963107
vt 0.584565 0.898081
vt 0.579388 0.889694
vt 0.584565 0.917866
vt 0.586383 0.907973
vt 0.579388 0.926253
vt 0.586383 0.898081
vt 0.580779 0.889694
vt 0.586383 0.917866
vt 0.588351 0.907973
vt 0.572393 0.963107
vt 0.580779 0.926253
vt 0.586383 0.907973
vt 0.584565 0.898081
vt 0.579388 0.926253
vt 0.584565 0.917866
vt 0.571640 0.963107
vt 0.579388 0.889694
vt 0.580779 0.907973
vt 0.579388 0.898081
vt 0.575426 0.926253
vt 0.579388 0.917866
vt 0.569495 0.963107
vt 0.575426 0.889694
vt 0.571640 0.898081
vt 0.569495 0.889694
vt 0.571640 0.917866
vt 0.572393 0.907973
vt 0.566286 0.963107
vt 0.569495 0.926253
vt 0.562500 0.917866
vt 0.562500 0.907973
vt 0.562500 0.963107
vt 0.562500 0.926253
vt 0.562500 0.898081
vt 0.562500 0.889694
vt 0.552607 0.907973
vt 0.553360 0.898081
vt 0.555505 0.926253
vt 0.553360 0.917866
vt 0.558714 0.963107
vt 0.555505 0.889694
vt 0.549574 0.926253
vt 0.545612 0.917866
vt 0.555505 0.963107
vt 0.545612 0.898081
vt 0.549574 0.889694
vt 0.544221 0.907973
vt 0.540435 0.898081
vt 0.545612 0.889694
vt 0.540435 0.917866
vt 0.538617 0.907973
vt 0.553360 0.963107
vt 0.545612 0.926253
vt 0.552607 0.963107
vt 0.544221 0.926253
vt 0.536649 0.907973
vt 0.538617 0.898081
vt 0.538617 0.917866
vt 0.544221 0.889694
vt 0.538617 0.907973
vt 0.540435 0.898081
vt 0.545612 0.926253
vt 0.540435 0.917866
vt 0.553360 0.963107
vt 0.545612 0.889694
vt 0.555505 0.963107
vt 0.545612 0.898081
vt 0.549574 0.889694
vt 0.545612 0.917866
vt 0.544221 0.907973
vt 0.549574 0.926253
vt 0.553360 0.898081
vt 0.555505 0.889694
vt 0.553360 0.917866
vt 0.552607 0.907973
vt 0.558714 0.963107
vt 0.555505 0.926253
vn 0.6753 0.2968 0.6753
vn 0.3654 0.2968 0.8823
vn 0.3827 0.0000 0.9239
vn 0.7071 0.0000 0.7071
vn -0.3654 0.2968 0.8823
vn -0.6753 0.2968 0.6753
vn -0.7071 0.0000 0.7071
vn -0.3827 0.0000 0.9239
vn 0.8823 0.2968 0.3654
vn 0.9239 0.0000 0.3827
vn -0.9550 0.2968 -0.0000
vn -0.8823 0.2968 -0.3654
vn -0.9239 0.0000 -0.3827
vn -1.0000 0.0000 -0.0000
vn 0.6753 0.2968 -0.6753
vn 0.8823 0.2968 -0.3654
vn 0.9239 0.0000 -0.3827
vn 0.7071 0.0000 -0.7071
vn -0.6753 0.2968 -0.6753
vn -0.3654 0.2968 -0.8823
vn -0.3827 0.0000 -0.9239
vn -0.7071 0.0000 -0.7071
vn -0.0000 0.2968 0.9550
vn -0.0000 0.0000 1.0000
vn 0.9550 0.2968 0.0000
vn 1.0000 0.0000 0.0000
vn -0.8823 0.2968 0.3654
vn -0.9239 0.0000 0.3827
vn -0.0000 0.2968 -0.9550
vn -0.0000 0.0000 -1.0000
vn 0.3654 0.2968 -0.8823
vn 0.3827 0.0000 -0.9239
vn 0.0000 -1.0000 0.0000
vn 0.2094 -0.8370 -0.5056
vn -0.0000 -0.8370 -0.5473
vn 0.3870 -0.8370 -0.3870
vn 0.5056 -0.8370 -0.2094
vn 0.5473 -0.8370 0.0000
vn 0.5056 -0.8370 0.2094
vn 0.3870 -0.8370 0.3870
vn 0.2094 -0.8370 0.5056
vn -0.0000 -0.8370 0.5473
vn -0.2094 -0.8370 0.5056
vn -0.3870 -0.8370 0.3870
vn -0.5056 -0.8370 0.2094
vn -0.5473 -0.8370 -0.0000
vn -0.5056 -0.8370 -0.2094
vn -0.3870 -0.8370 -0.3870
vn -0.2094 -0.8370 -0.5056
vn -0.0000 0.5850 -0.8110
vn 0.3104 0.5850 -0.7493
vn 0.5735 0.5850 -0.5735
vn 0.7493 0.5850 -0.3104
vn 0.8110 0.5850 0.0000
vn 0.7493 0.5850 0.3104
vn 0.5735 0.5850 0.5735
vn 0.3104 0.5850 0.7493
vn -0.0000 0.5850 0.8110
vn -0.3104 0.5850 0.7493
vn -0.5735 0.5850 0.5735
vn -0.7493 0.5850 0.3104
vn -0.8110 0.5850 -0.0000
vn -0.7493 0.5850 -0.3104
vn -0.5735 0.5850 -0.5735
vn -0.3104 0.5850 -0.7493
vn 0.0282 0.9995 -0.0117
vn 0.0305 0.9995 -0.0000
vn -0.0117 0.9995 -0.0282
vn 0.0000 0.9995 -0.0305
vn 0.0117 0.9995 -0.0282
vn 0.0216 0.9995 -0.0216
vn -0.0282 0.9995 0.0117
vn -0.0305 0.9995 0.0000
vn -0.0282 0.9995 -0.0117
vn 0.0000 0.9995 0.0305
vn -0.0117 0.9995 0.0282
vn 0.0282 0.9995 0.0117
vn 0.0216 0.9995 0.0216
vn -0.0216 0.9995 0.0216
vn -0.0216 0.9995 -0.0216
vn 0.0117 0.9995 0.0282
vn 0.4393 0.8984 0.0000
vn 0.3516 -0.0000 0.9361
vn 0.2107 0.4310 0.8774
vn 0.2107 0.4310 -0.8774
vn 0.3516 -0.0000 -0.9361
vn 0.5525 -0.6314 0.5441
vn 0.5034 0.2807 0.8172
vn 0.5034 0.2807 -0.8172
vn 0.5525 -0.6314 -0.5441
vn 0.3106 0.6352 -0.7071
vn 0.3106 0.6352 0.7071
vn 0.4136 -0.8458 -0.3369
vn 0.3106 -0.6352 -0.7071
vn 0.4136 -0.8458 0.3369
vn 0.3106 -0.6352 0.7071
vn -0.0000 0.3744 -0.9273
vn 0.3549 0.3744 -0.8567
vn -0.0000 0.6952 -0.7189
vn 0.0000 0.9152 -0.4031
vn 0.1543 0.9152 -0.3724
vn 0.2751 0.6952 -0.6641
vn -0.0000 -0.3744 -0.9273
vn 0.3549 -0.3744 -0.8567
vn 0.0000 1.0000 0.0000
vn -0.0000 -0.5556 -0.8315
vn 0.3182 -0.5556 -0.7682
vn 0.6557 -0.3744 -0.6557
vn 0.5083 0.6952 -0.5083
vn 0.6557 0.3744 -0.6557
vn 0.2850 0.9152 -0.2850
vn 0.5879 -0.5556 -0.5879
vn 0.3724 0.9152 -0.1543
vn 0.8567 -0.3744 -0.3549
vn 0.7682 -0.5556 -0.3182
vn 0.8567 0.3744 -0.3549
vn 0.6641 0.6952 -0.2751
vn 0.9273 -0.3744 0.0000
vn 0.8315 -0.5556 -0.0000
vn 0.9273 0.3744 0.0000
vn 0.4031 0.9152 0.0000
vn 0.7189 0.6952 0.0000
vn 0.8567 -0.3744 0.3549
vn 0.6641 0.6952 0.2751
vn 0.8567 0.3744 0.3549
vn 0.3724 0.9152 0.1543
vn 0.7682 -0.5556 0.3182
vn 0.6557 -0.3744 0.6557
vn 0.5083 0.6952 0.5083
vn 0.6557 0.3744 0.6557
vn 0.2850 0.9152 0.2850
vn 0.5879 -0.5556 0.5879
vn 0.3549 -0.3744 0.8567
vn 0.3182 -0.5556 0.7682
vn 0.3549 0.3744 0.8567
vn 0.1543 0.9152 0.3724
vn 0.2751 0.6952 0.6641
vn -0.0000 0.3744 0.9273
vn -0.0000 0.9152 0.4031
vn -0.0000 0.6952 0.7189
vn -0.0000 -0.3744 0.9273
vn -0.0000 -0.5556 0.8315
vn -0.3549 -0.3744 0.8567
vn -0.2751 0.6952 0.6641
vn -0.3549 0.3744 0.8567
vn -0.1543 0.9152 0.3724
vn -0.3182 -0.5556 0.7682
vn -0.5083 0.6952 0.5083
vn -0.6557 0.3744 0.6557
vn -0.2850 0.9152 0.2850
vn -0.6557 -0.3744 0.6557
vn -0.5879 -0.5556 0.5879
vn -0.8567 -0.3744 0.3549
vn -0.7682 -0.5556 0.3182
vn -0.8567 0.3744 0.3549
vn -0.3724 0.9152 0.1543
vn -0.6641 0.6952 0.2751
vn -0.4031 0.9152 0.0000
vn -0.7189 0.6952 0.0000
vn -0.9273 -0.3744 0.0000
vn -0.9273 0.3744 -0.0000
vn -0.8315 -0.5556 0.0000
vn -0.8567 -0.3744 -0.3549
vn -0.6641 0.6952 -0.2751
vn -0.8567 0.3744 -0.3549
vn -0.3724 0.9152 -0.1543
vn -0.7682 -0.5556 -0.3182
vn -0.2850 0.9152 -0.2850
vn -0.6557 -0.3744 -0.6557
vn -0.5879 -0.5556 -0.5879
vn -0.6557 0.3744 -0.6557
vn -0.5083 0.6952 -0.5083
vn -0.3549 -0.3744 -0.8567
vn -0.3182 -0.5556 -0.7682
vn -0.3549 0.3744 -0.8567
vn -0.1543 0.9152 -0.3724
vn -0.2751 0.6952 -0.6641
usemtl boardgame
s 1
f 47/1/1 49/2/2 16/3/3 14/4/4
f 53/5/5 55/6/6 22/7/7 20/8/8
f 45/9/9 47/1/1 14/4/4 12/10/10
f 59/11/11 61/12/12 28/13/13 26/14/14
f 39/15/15 41/16/16 8/17/17 6/18/18
f 63/19/19 65/20/20 32/21/21 30/22/22
f 51/23/23 53/5/5 20/8/8 18/24/24
f 41/16/16 43/25/25 10/26/26 8/17/17
f 57/27/27 59/11/11 26/14/14 24/28/28
f 65/20/20 36/29/29 5/30/30 32/21/21
f 35/31/31 39/15/15 6/18/18 2/32/32
f 1/33/33 17/34/33 19/35/33
f 1/33/33 29/36/33 31/37/33
f 1/33/33 15/38/33 17/34/33
f 1/33/33 27/39/33 29/36/33
f 1/33/33 13/40/33 15/38/33
f 1/33/33 25/41/33 27/39/33
f 1/33/33 11/42/33 13/40/33
f 1/33/33 23/43/33 25/41/33
f 1/33/33 9/44/33 11/42/33
f 1/33/33 21/45/33 23/43/33
f 1/33/33 7/46/33 9/44/33
f 1/33/33 33/47/33 4/48/33
f 1/33/33 19/35/33 21/45/33
f 1/33/33 31/37/33 33/47/33
f 1/33/33 3/49/33 7/46/33
f 36/29/29 35/31/31 2/32/32 5/30/30
f 1/33/33 4/48/33 3/49/33
f 43/25/25 45/9/9 12/10/10 10/26/26
f 49/2/2 51/23/23 18/24/24 16/3/3
f 55/6/6 57/27/27 24/28/28 22/7/7
f 61/12/12 63/19/19 30/22/22 28/13/13
f 3/49/34 4/48/35 5/50/35 2/51/34
f 7/46/36 3/49/34 2/51/34 6/52/36
f 6/52/36 8/53/37 9/44/37 7/46/36
f 11/42/38 9/44/37 8/53/37 10/54/38
f 13/40/39 11/42/38 10/54/38 12/55/39
f 12/55/39 14/56/40 15/38/40 13/40/39
f 14/56/40 16/57/41 17/34/41 15/38/40
f 19/35/42 17/34/41 16/57/41 18/58/42
f 21/45/43 19/35/42 18/58/42 20/59/43
f 20/59/43 22/60/44 23/43/44 21/45/43
f 22/60/44 24/61/45 25/41/45 23/43/44
f 27/39/46 25/41/45 24/61/45 26/62/46
f 29/36/47 27/39/46 26/62/46 28/63/47
f 28/63/47 30/64/48 31/37/48 29/36/47
f 33/47/49 31/37/48 30/64/48 32/65/49
f 4/48/35 33/47/49 32/65/49 5/50/35
f 35/31/31 36/29/29 37/66/50 34/67/51
f 39/15/15 35/31/31 34/67/51 38/68/52
f 38/68/52 40/69/53 41/16/16 39/15/15
f 43/25/25 41/16/16 40/69/53 42/70/54
f 45/9/9 43/25/25 42/70/54 44/71/55
f 44/71/55 46/72/56 47/1/1 45/9/9
f 46/72/56 48/73/57 49/2/2 47/1/1
f 51/23/23 49/2/2 48/73/57 50/74/58
f 53/5/5 51/23/23 50/74/58 52/75/59
f 52/75/59 54/76/60 55/6/6 53/5/5
f 54/76/60 56/77/61 57/27/27 55/6/6
f 59/11/11 57/27/27 56/77/61 58/78/62
f 61/12/12 59/11/11 58/78/62 60/79/63
f 60/79/63 62/80/64 63/19/19 61/12/12
f 65/20/20 63/19/19 62/80/64 64/81/65
f 36/29/29 65/20/20 64/81/65 37/66/50
f 179/82/66 180/83/67 42/70/67 40/69/66
f 191/84/68 192/85/69 37/66/69 64/81/68
f 177/86/70 178/87/71 38/68/71 34/67/70
f 178/87/71 179/82/66 40/69/66 38/68/71
f 187/88/72 188/89/73 58/78/73 56/77/72
f 188/89/73 189/90/74 60/79/74 58/78/73
f 184/91/75 185/92/76 52/75/76 50/74/75
f 181/93/77 182/94/78 46/72/78 44/71/77
f 180/83/67 181/93/77 44/71/77 42/70/67
f 185/92/76 186/95/79 54/76/79 52/75/76
f 190/96/80 191/84/68 64/81/68 62/80/80
f 189/90/74 190/96/80 62/80/80 60/79/74
f 182/94/78 183/97/81 48/73/81 46/72/78
f 186/95/79 187/88/72 56/77/72 54/76/79
f 183/97/81 184/91/75 50/74/75 48/73/81
f 78/98/82 72/99/82 69/100/82 75/101/82
f 76/102/83 68/103/84 67/104/24
f 70/105/30 73/106/85 77/107/86
f 74/108/87 75/101/88 76/102/83
f 77/107/86 78/98/89 79/109/90
f 72/99/91 78/98/89 77/107/86 73/106/85
f 78/98/26 75/101/26 74/108/26 79/109/26
f 75/101/88 69/100/92 68/103/84 76/102/83
f 79/109/90 71/110/93 70/105/94 77/107/86
f 66/111/95 74/108/87 76/102/83 67/104/96
f 71/110/93 79/109/90 74/108/87 66/111/95
f 175/112/30 81/113/97 85/114/98 86/115/32
f 80/116/99 174/117/100 83/118/101 84/119/102
f 82/120/103 175/112/30 86/115/32 87/121/104
f 81/113/97 80/116/99 84/119/102 85/114/98
f 174/117/100 125/122/105 83/118/101
f 176/123/106 82/120/103 87/121/104 88/124/107
f 87/121/104 86/115/32 92/125/18 93/126/108
f 85/114/98 84/119/102 90/127/109 91/128/110
f 83/118/101 125/122/105 89/129/111
f 88/124/107 87/121/104 93/126/108 94/130/112
f 86/115/32 85/114/98 91/128/110 92/125/18
f 84/119/102 83/118/101 89/129/111 90/127/109
f 89/129/111 125/122/105 95/131/113
f 94/130/112 93/126/108 99/132/114 100/133/115
f 92/125/18 91/128/110 97/134/116 98/135/17
f 90/127/109 89/129/111 95/131/113 96/136/117
f 93/126/108 92/125/18 98/135/17 99/132/114
f 91/128/110 90/127/109 96/136/117 97/134/116
f 100/133/115 99/132/114 105/137/118 106/138/119
f 98/135/17 97/134/116 103/139/120 104/140/26
f 96/136/117 95/131/113 101/141/121 102/142/122
f 99/132/114 98/135/17 104/140/26 105/137/118
f 97/134/116 96/136/117 102/142/122 103/139/120
f 95/131/113 125/122/105 101/141/121
f 105/137/118 104/140/26 110/143/10 111/144/123
f 103/139/120 102/142/122 108/145/124 109/146/125
f 101/141/121 125/122/105 107/147/126
f 106/138/119 105/137/118 111/144/123 112/148/127
f 104/140/26 103/139/120 109/146/125 110/143/10
f 102/142/122 101/141/121 107/147/126 108/145/124
f 111/144/123 110/143/10 116/149/4 117/150/128
f 109/146/125 108/145/124 114/151/129 115/152/130
f 107/147/126 125/122/105 113/153/131
f 112/148/127 111/144/123 117/150/128 118/154/132
f 110/143/10 109/146/125 115/152/130 116/149/4
f 108/145/124 107/147/126 113/153/131 114/151/129
f 118/154/132 117/150/128 123/155/133 124/156/134
f 116/149/4 115/152/130 121/157/135 122/158/3
f 114/151/129 113/153/131 119/159/136 120/160/137
f 117/150/128 116/149/4 122/158/3 123/155/133
f 115/152/130 114/151/129 120/160/137 121/157/135
f 113/153/131 125/122/105 119/159/136
f 122/158/3 121/157/135 128/161/138 129/162/24
f 120/160/137 119/159/136 126/163/139 127/164/140
f 123/155/133 122/158/3 129/162/24 130/165/141
f 121/157/135 120/160/137 127/164/140 128/161/138
f 119/159/136 125/122/105 126/163/139
f 124/156/134 123/155/133 130/165/141 131/166/142
f 130/165/141 129/162/24 135/167/8 136/168/143
f 128/161/138 127/164/140 133/169/144 134/170/145
f 126/163/139 125/122/105 132/171/146
f 131/166/142 130/165/141 136/168/143 137/172/147
f 129/162/24 128/161/138 134/170/145 135/167/8
f 127/164/140 126/163/139 132/171/146 133/169/144
f 134/170/145 133/169/144 139/173/148 140/174/149
f 132/171/146 125/122/105 138/175/150
f 137/172/147 136/168/143 142/176/151 143/177/152
f 135/167/8 134/170/145 140/174/149 141/178/7
f 133/169/144 132/171/146 138/175/150 139/173/148
f 136/168/143 135/167/8 141/178/7 142/176/151
f 143/177/152 142/176/151 148/179/153 149/180/154
f 141/178/7 140/174/149 146/181/155 147/182/28
f 139/173/148 138/175/150 144/183/156 145/184/157
f 142/176/151 141/178/7 147/182/28 148/179/153
f 140/174/149 139/173/148 145/184/157 146/181/155
f 138/175/150 125/122/105 144/183/156
f 145/184/157 144/183/156 150/185/158 151/186/159
f 148/179/153 147/182/28 153/187/14 154/188/160
f 146/181/155 145/184/157 151/186/159 152/189/161
f 144/183/156 125/122/105 150/185/158
f 149/180/154 148/179/153 154/188/160 155/190/162
f 147/182/28 146/181/155 152/189/161 153/187/14
f 154/188/160 153/187/14 159/191/13 160/192/163
f 152/189/161 151/186/159 157/193/164 158/194/165
f 150/185/158 125/122/105 156/195/166
f 155/190/162 154/188/160 160/192/163 161/196/167
f 153/187/14 152/189/161 158/194/165 159/191/13
f 151/186/159 150/185/158 156/195/166 157/193/164
f 156/195/166 125/122/105 162/197/168
f 161/196/167 160/192/163 166/198/169 167/199/170
f 159/191/13 158/194/165 164/200/171 165/201/22
f 157/193/164 156/195/166 162/197/168 163/202/172
f 160/192/163 159/191/13 165/201/22 166/198/169
f 158/194/165 157/193/164 163/202/172 164/200/171
f 167/199/170 166/198/169 172/203/173 173/204/174
f 165/201/22 164/200/171 170/205/175 171/206/21
f 163/202/172 162/197/168 168/207/176 169/208/177
f 166/198/169 165/201/22 171/206/21 172/203/173
f 164/200/171 163/202/172 169/208/177 170/205/175
f 162/197/168 125/122/105 168/207/176
f 172/203/173 171/206/21 175/112/30 82/120/103
f 170/205/175 169/208/177 80/116/99 81/113/97
f 168/207/176 125/122/105 174/117/100
f 173/204/174 172/203/173 82/120/103 176/123/106
f 171/206/21 170/205/175 81/113/97 175/112/30
f 169/208/177 168/207/176 174/117/100 80/116/99
f 100/133/17 106/138/26 180/83/26 179/82/17
f 88/124/32 94/130/18 178/87/18 177/86/32
f 161/196/13 167/199/22 190/96/22 189/90/13
f 173/204/21 176/123/30 192/85/30 191/84/21
f 149/180/28 155/190/14 188/89/14 187/88/28
f 118/154/4 124/156/3 183/97/3 182/94/4
f 137/172/8 143/177/7 186/95/7 185/92/8
f 167/199/22 173/204/21 191/84/21 190/96/22
f 106/138/26 112/148/10 181/93/10 180/83/26
f 155/190/14 161/196/13 189/90/13 188/89/14
f 143/177/7 149/180/28 187/88/28 186/95/7
f 131/166/24 137/172/8 185/92/8 184/91/24
f 124/156/3 131/166/24 184/91/24 183/97/3
f 94/130/18 100/133/17 179/82/17 178/87/18
f 112/148/10 118/154/4 182/94/4 181/93/10
f 176/123/30 88/124/32 177/86/32 192/85/30
f 192/85/69 177/86/70 34/67/70 37/66/69
