# Blender v3.4.1 OBJ File: 'Board_game_bits_export.blend'
# www.blender.org
mtllib meeple_red.mtl
o meeple_red
v -0.000000 0.452610 -0.200000
v -0.000000 0.997862 -0.200000
v 0.000000 0.452610 0.200000
v 0.000000 0.997862 0.200000
v -0.315673 0.050000 -0.200000
v -0.378039 -0.000000 -0.150000
v 0.378039 -0.000000 -0.150000
v 0.315673 0.050000 -0.200000
v -0.277197 0.452610 -0.150000
v -0.214831 0.502611 -0.200000
v 0.214831 0.502611 -0.200000
v 0.277197 0.452610 -0.150000
v 0.188387 0.050000 -0.200000
v 0.161654 -0.000000 -0.150000
v 0.000000 0.242050 -0.150000
v 0.000000 0.332078 -0.200000
v -0.161654 -0.000000 -0.150000
v -0.188387 0.050000 -0.200000
v -0.405601 0.502611 -0.200000
v -0.444384 0.452610 -0.150000
v 0.444384 0.452610 -0.150000
v 0.405601 0.502611 -0.200000
v -0.500001 0.669200 -0.150000
v -0.441053 0.640672 -0.200000
v 0.441053 0.640672 -0.200000
v 0.500001 0.669200 -0.150000
v -0.167273 0.816978 -0.150000
v -0.093078 0.795221 -0.200000
v 0.093078 0.795221 -0.200000
v 0.167273 0.816978 -0.150000
v 0.051823 1.190040 -0.200000
v 0.065301 1.240023 -0.150000
v 0.178407 1.174722 -0.150000
v 0.141583 1.138217 -0.200000
v 0.243708 1.061617 -0.150000
v 0.193399 1.048456 -0.200000
v 0.243708 0.931014 -0.150000
v 0.193374 0.944821 -0.200000
v -0.193374 0.944821 -0.200000
v -0.243708 0.931014 -0.150000
v -0.243708 1.061617 -0.150000
v -0.193399 1.048456 -0.200000
v -0.178407 1.174722 -0.150000
v -0.141583 1.138217 -0.200000
v -0.051823 1.190040 -0.200000
v -0.065302 1.240023 -0.150000
v -0.214831 0.502611 0.200000
v -0.277197 0.452610 0.150000
v -0.378039 -0.000000 0.150000
v -0.315673 0.050000 0.200000
v 0.315673 0.050000 0.200000
v 0.378039 -0.000000 0.150000
v 0.277197 0.452610 0.150000
v 0.214831 0.502611 0.200000
v 0.161654 -0.000000 0.150000
v 0.188387 0.050000 0.200000
v 0.000000 0.332078 0.200000
v 0.000000 0.242050 0.150000
v -0.188387 0.050000 0.200000
v -0.161654 -0.000000 0.150000
v 0.405601 0.502611 0.200000
v 0.444384 0.452610 0.150000
v 0.500001 0.669200 0.150000
v 0.441053 0.640672 0.200000
v -0.441053 0.640672 0.200000
v -0.500001 0.669200 0.150000
v -0.444384 0.452610 0.150000
v -0.405601 0.502611 0.200000
v 0.167273 0.816978 0.150000
v 0.093078 0.795221 0.200000
v -0.093078 0.795221 0.200000
v -0.167273 0.816978 0.150000
v 0.065301 1.240023 0.150000
v 0.051823 1.190040 0.200000
v 0.141583 1.138217 0.200000
v 0.178407 1.174722 0.150000
v 0.193399 1.048456 0.200000
v 0.243708 1.061617 0.150000
v 0.193374 0.944821 0.200000
v 0.243708 0.931014 0.150000
v -0.065301 1.240023 0.150000
v -0.051823 1.190040 0.200000
v -0.243708 0.931014 0.150000
v -0.193374 0.944821 0.200000
v -0.193399 1.048456 0.200000
v -0.243708 1.061617 0.150000
v -0.141583 1.138217 0.200000
v -0.178407 1.174722 0.150000
vt 0.552877 0.894417
vt 0.545507 0.866540
vt 0.533960 0.866540
vt 0.531814 0.879693
vt 0.568296 0.771781
vt 0.581394 0.771781
vt 0.581394 0.771781
vt 0.568296 0.771781
vt 0.558511 0.861777
vt 0.571514 0.866540
vt 0.558511 0.850293
vt 0.546806 0.908670
vt 0.558511 0.913723
vt 0.564145 0.894417
vt 0.531612 0.814902
vt 0.541732 0.814902
vt 0.541732 0.814902
vt 0.531612 0.814902
vt 0.575290 0.814902
vt 0.585409 0.814902
vt 0.585409 0.814902
vt 0.575290 0.814902
vt 0.535628 0.771781
vt 0.548726 0.771781
vt 0.548726 0.771781
vt 0.535628 0.771781
vt 0.585208 0.879693
vt 0.583062 0.866540
vt 0.543759 0.907354
vt 0.548386 0.896490
vt 0.548386 0.896490
vt 0.543759 0.907354
vt 0.562463 0.983668
vt 0.554558 0.983668
vt 0.554558 0.983668
vt 0.562463 0.983668
vt 0.573262 0.907354
vt 0.573262 0.966672
vt 0.573262 0.966672
vt 0.573262 0.907354
vt 0.570216 0.908670
vt 0.558511 0.913723
vt 0.546806 0.908670
vt 0.552877 0.894417
vt 0.569310 0.977447
vt 0.569310 0.977447
vt 0.547712 0.977447
vt 0.543759 0.966672
vt 0.543759 0.966672
vt 0.547712 0.977447
vt 0.539403 0.823420
vt 0.547108 0.823420
vt 0.558511 0.850293
vt 0.545507 0.866540
vt 0.531814 0.879693
vt 0.533960 0.866540
vt 0.558511 0.861777
vt 0.571514 0.866540
vt 0.569914 0.823420
vt 0.577619 0.823420
vt 0.564145 0.894417
vt 0.570216 0.908670
vt 0.583062 0.866540
vt 0.585208 0.879693
vt 0.561648 0.932032
vt 0.555374 0.932032
vt 0.570217 0.918543
vt 0.567081 0.927094
vt 0.549941 0.927094
vt 0.546804 0.918543
vt 0.577619 0.823420
vt 0.569914 0.823420
vt 0.549941 0.927094
vt 0.555374 0.932032
vt 0.528245 0.929286
vt 0.528245 0.929286
vt 0.588776 0.929286
vt 0.568636 0.896490
vt 0.568636 0.896490
vt 0.588776 0.929286
vt 0.585409 0.861777
vt 0.588776 0.882411
vt 0.588776 0.882411
vt 0.585409 0.861777
vt 0.561648 0.932032
vt 0.548726 0.787406
vt 0.558511 0.794841
vt 0.558511 0.794841
vt 0.548726 0.787406
vt 0.558511 0.810466
vt 0.568296 0.787406
vt 0.568296 0.787406
vt 0.558511 0.810466
vt 0.546804 0.918543
vt 0.528245 0.882411
vt 0.531612 0.861777
vt 0.531612 0.861777
vt 0.528245 0.882411
vt 0.567081 0.927094
vt 0.539403 0.823420
vt 0.547108 0.823420
vt 0.570217 0.918543
vt 0.581394 0.818656
vt 0.575290 0.830527
vt 0.575290 0.830527
vt 0.581394 0.818656
vt 0.545507 0.897790
vt 0.539403 0.854670
vt 0.535628 0.849906
vt 0.541732 0.893027
vt 0.577619 0.854670
vt 0.571514 0.897790
vt 0.575290 0.893027
vt 0.581394 0.849906
vt 0.568296 0.849906
vt 0.558511 0.872966
vt 0.558511 0.881543
vt 0.569914 0.854670
vt 0.548726 0.849906
vt 0.547108 0.854670
vt 0.583062 0.897790
vt 0.585208 0.910943
vt 0.588776 0.913661
vt 0.585409 0.893027
vt 0.531814 0.910943
vt 0.533960 0.897790
vt 0.531612 0.893027
vt 0.528245 0.913661
vt 0.564145 0.925667
vt 0.568636 0.927740
vt 0.552877 0.925667
vt 0.548386 0.927740
vt 0.562463 0.968043
vt 0.569310 0.961822
vt 0.567081 0.958344
vt 0.561648 0.963282
vt 0.573262 0.951047
vt 0.570217 0.949793
vt 0.554558 0.968043
vt 0.555374 0.963282
vt 0.543759 0.938604
vt 0.543759 0.951047
vt 0.546804 0.949793
vt 0.546806 0.939920
vt 0.549941 0.958344
vt 0.547712 0.961822
vt 0.573262 0.938604
vt 0.570216 0.939920
vt 0.541732 0.893027
vt 0.535628 0.849906
vt 0.539403 0.854670
vt 0.545507 0.897790
vt 0.581394 0.849906
vt 0.575290 0.893027
vt 0.571514 0.897790
vt 0.577619 0.854670
vt 0.569914 0.854670
vt 0.558511 0.881543
vt 0.558511 0.872966
vt 0.568296 0.849906
vt 0.547108 0.854670
vt 0.548726 0.849906
vt 0.585409 0.893027
vt 0.588776 0.913661
vt 0.585208 0.910943
vt 0.583062 0.897790
vt 0.528245 0.913661
vt 0.531612 0.893027
vt 0.533960 0.897790
vt 0.531814 0.910943
vt 0.568636 0.927740
vt 0.564145 0.925667
vt 0.548386 0.927740
vt 0.552877 0.925667
vt 0.561648 0.963282
vt 0.567081 0.958344
vt 0.569310 0.961822
vt 0.562463 0.968043
vt 0.570217 0.949793
vt 0.573262 0.951047
vt 0.555374 0.963282
vt 0.554558 0.968043
vt 0.546806 0.939920
vt 0.546804 0.949793
vt 0.543759 0.951047
vt 0.543759 0.938604
vt 0.547712 0.961822
vt 0.549941 0.958344
vt 0.570216 0.939920
vt 0.573262 0.938604
vt 0.541732 0.830527
vt 0.535628 0.818656
vt 0.535628 0.818656
vt 0.541732 0.830527
vn 0.0000 0.0000 -1.0000
vn 0.0000 -1.0000 -0.0000
vn -0.9567 -0.2910 0.0000
vn -0.8307 -0.5568 0.0000
vn 0.2588 0.9659 0.0000
vn -0.2588 0.9659 0.0000
vn 0.9567 -0.2910 -0.0000
vn 0.9659 0.2588 0.0000
vn -0.0000 0.0000 1.0000
vn 0.7071 0.7071 0.0000
vn -0.7071 0.7071 0.0000
vn -0.9659 0.2588 0.0000
vn -0.4059 0.9139 -0.0000
vn 0.4059 0.9139 0.0000
vn 0.9686 -0.2487 0.0000
vn 0.8316 -0.5554 0.0000
vn -0.8316 -0.5554 0.0000
vn -0.9686 -0.2487 0.0000
vn 0.9761 0.2175 0.0000
vn 0.8307 -0.5568 -0.0000
vn -0.6902 0.1538 -0.7071
vn 0.6902 0.1538 -0.7071
vn -0.3119 -0.5833 -0.7500
vn -0.5880 -0.3927 -0.7071
vn 0.5880 -0.3927 -0.7071
vn 0.3119 -0.5833 -0.7500
vn 0.0000 -0.7071 -0.7071
vn 0.6849 -0.1759 -0.7071
vn -0.6849 -0.1759 -0.7071
vn 0.2870 0.6462 -0.7071
vn -0.2870 0.6462 -0.7071
vn 0.1799 0.6710 -0.7193
vn 0.4910 0.4906 -0.7199
vn 0.4905 0.4911 -0.7198
vn 0.1797 0.6711 -0.7193
vn 0.6696 0.1789 -0.7209
vn 0.6693 0.1799 -0.7209
vn -0.1799 0.6710 -0.7193
vn -0.1797 0.6711 -0.7193
vn -0.6626 -0.1993 -0.7220
vn -0.6696 0.1789 -0.7209
vn -0.6693 0.1799 -0.7209
vn -0.6611 -0.2044 -0.7219
vn -0.5903 -0.3957 -0.7036
vn -0.4905 0.4911 -0.7198
vn -0.4910 0.4906 -0.7199
vn 0.6626 -0.1993 -0.7220
vn 0.6611 -0.2044 -0.7219
vn 0.5903 -0.3957 -0.7036
vn -0.6902 0.1538 0.7071
vn 0.6902 0.1538 0.7071
vn -0.3119 -0.5833 0.7500
vn -0.5880 -0.3927 0.7071
vn 0.5880 -0.3927 0.7071
vn 0.3119 -0.5833 0.7500
vn 0.0000 -0.7071 0.7071
vn 0.6849 -0.1759 0.7071
vn -0.6849 -0.1759 0.7071
vn 0.2870 0.6462 0.7071
vn -0.2870 0.6462 0.7071
vn 0.1797 0.6711 0.7193
vn 0.4905 0.4911 0.7198
vn 0.4910 0.4906 0.7199
vn 0.1799 0.6710 0.7193
vn 0.6693 0.1799 0.7209
vn 0.6696 0.1789 0.7209
vn -0.1797 0.6711 0.7193
vn -0.1799 0.6710 0.7193
vn -0.6611 -0.2044 0.7219
vn -0.6693 0.1799 0.7209
vn -0.6696 0.1789 0.7209
vn -0.6626 -0.1993 0.7220
vn -0.5903 -0.3957 0.7036
vn -0.4910 0.4906 0.7199
vn -0.4905 0.4911 0.7198
vn 0.6611 -0.2044 0.7219
vn 0.6626 -0.1993 0.7220
vn 0.5903 -0.3957 0.7036
vn -0.9761 0.2175 0.0000
usemtl boardgame
s 1
f 28/1/1 10/2/1 19/3/1 24/4/1
f 14/5/2 7/6/2 52/7/2 55/8/2
f 1/9/1 11/10/1 16/11/1
f 28/1/1 39/12/1 2/13/1
f 1/9/1 29/14/1 11/10/1
f 20/15/2 9/16/2 48/17/2 67/18/2
f 12/19/2 21/20/2 62/21/2 53/22/2
f 6/23/2 17/24/2 60/25/2 49/26/2
f 11/10/1 29/14/1 25/27/1 22/28/1
f 40/29/3 27/30/4 72/31/4 83/32/3
f 32/33/5 46/34/6 81/35/6 73/36/5
f 37/37/7 35/38/8 78/39/8 80/40/7
f 38/41/1 29/14/1 2/13/1
f 4/42/9 84/43/9 71/44/9
f 35/38/8 33/45/10 76/46/10 78/39/8
f 43/47/11 41/48/12 86/49/12 88/50/11
f 46/34/6 43/47/11 88/50/11 81/35/6
f 41/48/12 40/29/3 83/32/3 86/49/12
f 50/51/9 59/52/9 57/53/9 47/54/9
f 71/44/9 65/55/9 68/56/9 47/54/9
f 3/57/9 57/53/9 54/58/9
f 57/53/9 56/59/9 51/60/9 54/58/9
f 4/42/9 70/61/9 79/62/9
f 3/57/9 54/58/9 70/61/9
f 47/54/9 57/53/9 3/57/9
f 4/42/9 71/44/9 70/61/9
f 3/57/9 71/44/9 47/54/9
f 54/58/9 61/63/9 64/64/9 70/61/9
f 71/44/9 3/57/9 70/61/9
f 4/42/9 74/65/9 82/66/9
f 4/42/9 79/62/9 77/67/9
f 4/42/9 75/68/9 74/65/9
f 33/45/10 32/33/5 73/36/5 76/46/10
f 4/42/9 77/67/9 75/68/9
f 4/42/9 87/69/9 85/70/9
f 4/42/9 82/66/9 87/69/9
f 4/42/9 85/70/9 84/43/9
f 16/11/1 11/10/1 8/71/1 13/72/1
f 2/13/1 44/73/1 45/74/1
f 27/30/13 23/75/13 66/76/13 72/31/13
f 28/1/1 29/14/1 1/9/1
f 26/77/14 30/78/14 69/79/14 63/80/14
f 21/81/15 26/82/15 63/83/15 62/84/15
f 10/2/1 1/9/1 16/11/1
f 2/13/1 45/74/1 31/85/1
f 17/86/16 15/87/16 58/88/16 60/89/16
f 15/90/17 14/91/17 55/92/17 58/93/17
f 2/13/1 39/12/1 42/94/1
f 23/95/18 20/96/18 67/97/18 66/98/18
f 2/13/1 42/94/1 44/73/1
f 1/9/1 10/2/1 28/1/1
f 2/13/1 31/85/1 34/99/1
f 5/100/1 10/2/1 16/11/1 18/101/1
f 2/13/1 29/14/1 28/1/1
f 2/13/1 36/102/1 38/41/1
f 7/103/19 12/104/19 53/105/19 52/106/19
f 2/13/1 34/99/1 36/102/1
f 30/78/20 37/37/7 80/40/7 69/79/20
f 10/107/21 5/108/21 6/109/21 9/110/21
f 8/111/22 11/112/22 12/113/22 7/114/22
f 14/115/23 15/116/24 16/117/24 13/118/23
f 15/116/25 17/119/26 18/120/26 16/117/25
f 13/118/23 8/111/27 7/114/27 14/115/23
f 5/108/27 18/120/26 17/119/26 6/109/27
f 22/121/28 25/122/28 26/123/28 21/124/28
f 24/125/29 19/126/29 20/127/29 23/128/29
f 19/126/27 10/107/27 9/110/27 20/127/27
f 11/112/27 22/121/27 21/124/27 12/113/27
f 25/122/30 29/129/30 30/130/30 26/123/30
f 28/131/31 24/125/31 23/128/31 27/132/31
f 32/133/32 33/134/33 34/135/34 31/136/35
f 33/134/33 35/137/36 36/138/37 34/135/34
f 46/139/38 32/133/32 31/136/35 45/140/39
f 40/141/40 41/142/41 42/143/42 39/144/43
f 27/132/44 40/141/40 39/144/43 28/131/44
f 44/145/45 42/143/42 41/142/41 43/146/46
f 35/137/36 37/147/47 38/148/48 36/138/37
f 45/140/39 44/145/45 43/146/46 46/139/38
f 29/129/49 38/148/48 37/147/47 30/130/49
f 48/149/50 49/150/50 50/151/50 47/152/50
f 52/153/51 53/154/51 54/155/51 51/156/51
f 56/157/52 57/158/53 58/159/53 55/160/52
f 57/158/54 59/161/55 60/162/55 58/159/54
f 55/160/52 52/153/56 51/156/56 56/157/52
f 49/150/56 60/162/55 59/161/55 50/151/56
f 62/163/57 63/164/57 64/165/57 61/166/57
f 66/167/58 67/168/58 68/169/58 65/170/58
f 67/168/56 48/149/56 47/152/56 68/169/56
f 53/154/56 62/163/56 61/166/56 54/155/56
f 63/164/59 69/171/59 70/172/59 64/165/59
f 72/173/60 66/167/60 65/170/60 71/174/60
f 74/175/61 75/176/62 76/177/63 73/178/64
f 75/176/62 77/179/65 78/180/66 76/177/63
f 82/181/67 74/175/61 73/178/64 81/182/68
f 84/183/69 85/184/70 86/185/71 83/186/72
f 71/174/73 84/183/69 83/186/72 72/173/73
f 88/187/74 86/185/71 85/184/70 87/188/75
f 77/179/65 79/189/76 80/190/77 78/180/66
f 81/182/68 88/187/74 87/188/75 82/181/67
f 69/171/78 80/190/77 79/189/76 70/172/78
f 9/191/79 6/192/79 49/193/79 48/194/79
