# Blender v3.4.1 OBJ File: 'Board_game_bits_export.blend'
# www.blender.org
mtllib pawn_A_yellow.mtl
o pawn_A_yellow
v 0.000000 0.850814 -0.153980
v 0.000000 0.780167 -0.201185
v 0.000000 0.613500 -0.201185
v 0.000000 0.495649 -0.083333
v 0.031890 0.898018 -0.076990
v 0.058926 0.850814 -0.142259
v 0.076990 0.780167 -0.185870
v 0.083333 0.696834 -0.201185
v 0.076990 0.613500 -0.185870
v 0.058926 0.542854 -0.142259
v 0.031890 0.495649 -0.076990
v 0.058926 0.898018 -0.058926
v 0.108880 0.850814 -0.108880
v 0.142259 0.780167 -0.142259
v 0.153980 0.696834 -0.153980
v 0.142259 0.613500 -0.142259
v 0.108880 0.542854 -0.108880
v 0.058926 0.495649 -0.058926
v 0.076990 0.898018 -0.031890
v 0.142259 0.850814 -0.058926
v 0.185870 0.780167 -0.076990
v 0.201185 0.696834 -0.083333
v 0.185870 0.613500 -0.076990
v 0.142259 0.542854 -0.058926
v 0.076990 0.495649 -0.031890
v 0.083333 0.898018 -0.000000
v 0.153980 0.850814 -0.000000
v 0.201185 0.780167 0.000000
v 0.217761 0.696834 0.000000
v 0.201185 0.613500 0.000000
v 0.153980 0.542854 -0.000000
v 0.083333 0.495649 -0.000000
v 0.076990 0.898018 0.031890
v 0.142259 0.850814 0.058926
v 0.185870 0.780167 0.076990
v 0.201184 0.696834 0.083333
v 0.185870 0.613500 0.076990
v 0.142259 0.542854 0.058926
v 0.076990 0.495649 0.031890
v 0.058926 0.898018 0.058926
v 0.108880 0.850814 0.108880
v 0.142259 0.780167 0.142259
v 0.153980 0.696834 0.153980
v 0.142259 0.613500 0.142259
v 0.108880 0.542854 0.108880
v 0.058926 0.495649 0.058926
v 0.031890 0.898018 0.076990
v 0.058926 0.850814 0.142259
v 0.076990 0.780167 0.185870
v 0.083333 0.696834 0.201184
v 0.076990 0.613500 0.185870
v 0.058926 0.542854 0.142259
v 0.031890 0.495649 0.076990
v 0.000000 0.914594 -0.000000
v -0.000000 0.898018 0.083333
v -0.000000 0.850814 0.153980
v -0.000000 0.780167 0.201184
v -0.000000 0.696834 0.217760
v -0.000000 0.613500 0.201184
v -0.000000 0.542854 0.153980
v -0.000000 0.495649 0.083333
v -0.031890 0.898018 0.076990
v -0.058926 0.850814 0.142259
v -0.076990 0.780167 0.185870
v -0.083333 0.696834 0.201184
v -0.076990 0.613500 0.185870
v -0.058926 0.542854 0.142259
v -0.031890 0.495649 0.076990
v -0.058926 0.898018 0.058926
v -0.108880 0.850814 0.108880
v -0.142259 0.780167 0.142259
v -0.153980 0.696834 0.153980
v -0.142259 0.613500 0.142259
v -0.108880 0.542854 0.108880
v -0.058926 0.495649 0.058926
v -0.076990 0.898018 0.031890
v -0.142259 0.850814 0.058926
v -0.185870 0.780167 0.076990
v -0.201184 0.696834 0.083333
v -0.185870 0.613500 0.076990
v -0.142259 0.542854 0.058926
v -0.076990 0.495649 0.031890
v -0.083333 0.898018 -0.000000
v -0.153980 0.850814 -0.000000
v -0.201184 0.780167 -0.000000
v -0.217760 0.696834 -0.000000
v -0.201184 0.613500 -0.000000
v -0.153980 0.542854 -0.000000
v -0.083333 0.495649 -0.000000
v -0.076990 0.898018 -0.031890
v -0.142259 0.850814 -0.058926
v -0.185870 0.780167 -0.076990
v -0.201184 0.696834 -0.083333
v -0.185870 0.613500 -0.076990
v -0.142259 0.542854 -0.058926
v -0.076990 0.495649 -0.031890
v -0.058926 0.898018 -0.058926
v -0.108880 0.850814 -0.108880
v -0.142259 0.780167 -0.142259
v -0.153980 0.696834 -0.153980
v -0.142259 0.613500 -0.142259
v -0.108880 0.542854 -0.108880
v -0.058926 0.495649 -0.058926
v -0.031890 0.898018 -0.076990
v -0.058925 0.850814 -0.142259
v -0.076990 0.780167 -0.185870
v -0.083333 0.696834 -0.201185
v -0.076990 0.613500 -0.185870
v -0.058925 0.542854 -0.142259
v -0.031890 0.495649 -0.076990
v 0.000000 0.898018 -0.083333
v 0.000000 0.696834 -0.217761
v 0.000000 0.542854 -0.153980
v 0.095671 0.087104 -0.230970
v 0.000000 0.087104 -0.250000
v 0.176777 0.087104 -0.176777
v 0.230970 0.087104 -0.095671
v 0.250000 0.087104 0.000000
v 0.230970 0.087104 0.095671
v 0.176777 0.087104 0.176777
v 0.095671 0.087104 0.230970
v -0.000000 0.087104 0.250000
v -0.095671 0.087104 0.230970
v -0.176777 0.087104 0.176777
v -0.230970 0.087104 0.095671
v -0.250000 0.087104 -0.000000
v -0.230970 0.087104 -0.095671
v -0.176777 0.087104 -0.176777
v -0.095671 0.087104 -0.230970
v 0.000000 0.000000 0.000000
v 0.095671 0.021776 -0.230970
v 0.087174 0.000000 -0.210457
v 0.000000 0.000000 -0.227797
v 0.000000 0.021776 -0.250000
v 0.176777 0.021776 -0.176777
v 0.161077 0.000000 -0.161077
v 0.230970 0.021776 -0.095671
v 0.210457 0.000000 -0.087174
v 0.250000 0.021776 0.000000
v 0.227797 0.000000 0.000000
v 0.230970 0.021776 0.095671
v 0.210457 0.000000 0.087174
v 0.176777 0.021776 0.176777
v 0.161077 0.000000 0.161077
v 0.095671 0.021776 0.230970
v 0.087174 0.000000 0.210457
v -0.000000 0.021776 0.250000
v -0.000000 0.000000 0.227797
v -0.095671 0.021776 0.230970
v -0.087174 0.000000 0.210457
v -0.176777 0.021776 0.176777
v -0.161077 0.000000 0.161077
v -0.230970 0.021776 0.095671
v -0.210457 0.000000 0.087174
v -0.250000 0.021776 -0.000000
v -0.227797 0.000000 -0.000000
v -0.230970 0.021776 -0.095671
v -0.210457 0.000000 -0.087174
v -0.176777 0.021776 -0.176777
v -0.161077 0.000000 -0.161077
v -0.095671 0.021776 -0.230970
v -0.087174 0.000000 -0.210457
vt 0.687500 0.907973
vt 0.687500 0.917866
vt 0.696640 0.917866
vt 0.697393 0.907973
vt 0.687500 0.926253
vt 0.687500 0.963107
vt 0.691286 0.963107
vt 0.694495 0.926253
vt 0.687500 0.852840
vt 0.687500 0.889694
vt 0.694495 0.889694
vt 0.691286 0.852840
vt 0.687500 0.898081
vt 0.696640 0.898081
vt 0.687500 0.965074
vt 0.694495 0.884090
vt 0.691286 0.884090
vt 0.698857 0.835590
vt 0.708486 0.835590
vt 0.700426 0.889694
vt 0.694495 0.852840
vt 0.705779 0.907973
vt 0.704388 0.898081
vt 0.700426 0.926253
vt 0.704388 0.917866
vt 0.694495 0.963107
vt 0.683714 0.884090
vt 0.680505 0.884090
vt 0.666514 0.835590
vt 0.676143 0.835590
vt 0.696640 0.963107
vt 0.696640 0.884090
vt 0.714919 0.835590
vt 0.709565 0.898081
vt 0.704388 0.889694
vt 0.709565 0.917866
vt 0.711383 0.907973
vt 0.704388 0.926253
vt 0.696640 0.852840
vt 0.711383 0.898081
vt 0.705779 0.889694
vt 0.711383 0.917866
vt 0.713351 0.907973
vt 0.697393 0.963107
vt 0.705779 0.926253
vt 0.697393 0.852840
vt 0.677607 0.884090
vt 0.678360 0.884090
vt 0.660081 0.835590
vt 0.657822 0.835590
vt 0.704388 0.889694
vt 0.696640 0.852840
vt 0.711383 0.907973
vt 0.709565 0.898081
vt 0.704388 0.926253
vt 0.709565 0.917866
vt 0.696640 0.963107
vt 0.683714 0.884090
vt 0.687500 0.884090
vt 0.687500 0.835590
vt 0.676143 0.835590
vt 0.705779 0.907973
vt 0.704388 0.898081
vt 0.700426 0.926253
vt 0.704388 0.917866
vt 0.694495 0.963107
vt 0.680505 0.884090
vt 0.666514 0.835590
vt 0.700426 0.889694
vt 0.694495 0.852840
vt 0.687500 0.884090
vt 0.687500 0.835590
vt 0.696640 0.898081
vt 0.694495 0.889694
vt 0.696640 0.917866
vt 0.697393 0.907973
vt 0.691286 0.963107
vt 0.694495 0.926253
vt 0.691286 0.852840
vt 0.687500 0.917866
vt 0.687500 0.907973
vt 0.687500 0.963107
vt 0.687500 0.926253
vt 0.687500 0.889694
vt 0.687500 0.852840
vt 0.687500 0.898081
vt 0.696640 0.884090
vt 0.697393 0.884090
vt 0.717178 0.835590
vt 0.714919 0.835590
vt 0.680505 0.889694
vt 0.683714 0.852840
vt 0.677607 0.907973
vt 0.678360 0.898081
vt 0.680505 0.926253
vt 0.678360 0.917866
vt 0.683714 0.963107
vt 0.674574 0.926253
vt 0.670612 0.917866
vt 0.680505 0.963107
vt 0.670612 0.898081
vt 0.674574 0.889694
vt 0.669221 0.907973
vt 0.680505 0.852840
vt 0.678360 0.884090
vt 0.660081 0.835590
vt 0.665435 0.898081
vt 0.670612 0.889694
vt 0.665435 0.917866
vt 0.663617 0.907973
vt 0.678360 0.963107
vt 0.670612 0.926253
vt 0.678360 0.852840
vt 0.677607 0.963107
vt 0.669221 0.926253
vt 0.669221 0.889694
vt 0.677607 0.852840
vt 0.661649 0.907973
vt 0.663617 0.898081
vt 0.663617 0.917866
vt 0.670612 0.889694
vt 0.678360 0.852840
vt 0.663617 0.907973
vt 0.665435 0.898081
vt 0.670612 0.926253
vt 0.665435 0.917866
vt 0.678360 0.963107
vt 0.691286 0.884090
vt 0.694495 0.884090
vt 0.708486 0.835590
vt 0.698857 0.835590
vt 0.680505 0.963107
vt 0.670612 0.898081
vt 0.674574 0.889694
vt 0.670612 0.917866
vt 0.669221 0.907973
vt 0.674574 0.926253
vt 0.680505 0.852840
vt 0.678360 0.898081
vt 0.680505 0.889694
vt 0.678360 0.917866
vt 0.677607 0.907973
vt 0.683714 0.963107
vt 0.680505 0.926253
vt 0.683714 0.852840
vt 0.687500 0.778375
vt 0.697849 0.809625
vt 0.687500 0.809625
vt 0.662516 0.809625
vt 0.668378 0.809625
vt 0.706622 0.809625
vt 0.660457 0.809625
vt 0.712484 0.809625
vt 0.662516 0.809625
vt 0.714543 0.809625
vt 0.668378 0.809625
vt 0.712484 0.809625
vt 0.677151 0.809625
vt 0.706622 0.809625
vt 0.677151 0.809625
vt 0.687500 0.809625
vt 0.687500 0.827835
vt 0.676143 0.827835
vt 0.697849 0.809625
vt 0.708486 0.827835
vt 0.698857 0.827835
vt 0.717178 0.827835
vt 0.714919 0.827835
vt 0.714919 0.827835
vt 0.708486 0.827835
vt 0.698857 0.827835
vt 0.687500 0.827835
vt 0.676143 0.827835
vt 0.666514 0.827835
vt 0.660081 0.827835
vt 0.657822 0.827835
vt 0.660081 0.827835
vt 0.666514 0.827835
vt 0.687500 0.812210
vt 0.698857 0.812210
vt 0.708486 0.812210
vt 0.714919 0.812210
vt 0.717178 0.812210
vt 0.714919 0.812210
vt 0.708486 0.812210
vt 0.698857 0.812210
vt 0.687500 0.812210
vt 0.676143 0.812210
vt 0.666514 0.812210
vt 0.660081 0.812210
vt 0.657822 0.812210
vt 0.660081 0.812210
vt 0.666514 0.812210
vt 0.676143 0.812210
vn 0.0000 0.0000 -1.0000
vn -0.0000 0.3744 -0.9273
vn 0.3549 0.3744 -0.8567
vn 0.3827 0.0000 -0.9239
vn -0.0000 0.6952 -0.7189
vn 0.0000 0.9152 -0.4031
vn 0.1543 0.9152 -0.3724
vn 0.2751 0.6952 -0.6641
vn -0.0000 -0.8315 -0.5556
vn -0.0000 -0.6952 -0.7189
vn 0.2751 -0.6952 -0.6641
vn 0.2126 -0.8315 -0.5133
vn -0.0000 -0.3744 -0.9273
vn 0.3549 -0.3744 -0.8567
vn -0.0000 1.0000 -0.0000
vn 0.6547 0.3777 0.6547
vn 0.3543 0.3777 0.8554
vn 0.5083 -0.6952 -0.5083
vn 0.3928 -0.8315 -0.3928
vn 0.7071 0.0000 -0.7071
vn 0.6557 -0.3744 -0.6557
vn 0.5083 0.6952 -0.5083
vn 0.6557 0.3744 -0.6557
vn 0.2850 0.9152 -0.2850
vn -0.3543 0.3777 0.8554
vn -0.6547 0.3777 0.6547
vn 0.3724 0.9152 -0.1543
vn 0.8554 0.3777 0.3543
vn 0.8567 -0.3744 -0.3549
vn 0.6641 -0.6952 -0.2751
vn 0.8567 0.3744 -0.3549
vn 0.9239 -0.0000 -0.3827
vn 0.6641 0.6952 -0.2751
vn 0.5133 -0.8315 -0.2126
vn 0.9273 -0.3744 0.0000
vn 0.7189 -0.6952 0.0000
vn 0.9273 0.3744 0.0000
vn 1.0000 -0.0000 0.0000
vn 0.4031 0.9152 0.0000
vn 0.7189 0.6952 0.0000
vn 0.5556 -0.8315 -0.0000
vn -0.9259 0.3777 -0.0000
vn -0.8554 0.3777 -0.3543
vn 0.6641 -0.6952 0.2751
vn 0.5133 -0.8315 0.2126
vn 0.9239 0.0000 0.3827
vn 0.8567 -0.3744 0.3549
vn 0.6641 0.6952 0.2751
vn 0.8567 0.3744 0.3549
vn 0.3724 0.9152 0.1543
vn -0.3543 0.3777 -0.8554
vn -0.0000 0.3777 -0.9259
vn 0.7071 0.0000 0.7071
vn 0.6557 -0.3744 0.6557
vn 0.5083 0.6952 0.5083
vn 0.6557 0.3744 0.6557
vn 0.2850 0.9152 0.2850
vn -0.6547 0.3777 -0.6547
vn 0.5083 -0.6952 0.5083
vn 0.3928 -0.8315 0.3928
vn -0.0000 0.3777 0.9259
vn 0.3549 -0.3744 0.8567
vn 0.2751 -0.6952 0.6641
vn 0.3549 0.3744 0.8567
vn 0.3827 -0.0000 0.9239
vn 0.1543 0.9152 0.3724
vn 0.2751 0.6952 0.6641
vn 0.2126 -0.8315 0.5133
vn -0.0000 0.3744 0.9273
vn -0.0000 -0.0000 1.0000
vn -0.0000 0.9152 0.4031
vn -0.0000 0.6952 0.7189
vn -0.0000 -0.6952 0.7189
vn -0.0000 -0.8315 0.5556
vn -0.0000 -0.3744 0.9273
vn 0.8554 0.3777 -0.3543
vn 0.9259 0.3777 0.0000
vn -0.2751 -0.6952 0.6641
vn -0.2126 -0.8315 0.5133
vn -0.3827 -0.0000 0.9239
vn -0.3549 -0.3744 0.8567
vn -0.2751 0.6952 0.6641
vn -0.3549 0.3744 0.8567
vn -0.1543 0.9152 0.3724
vn -0.5083 0.6952 0.5083
vn -0.6557 0.3744 0.6557
vn -0.2850 0.9152 0.2850
vn -0.6557 -0.3744 0.6557
vn -0.5083 -0.6952 0.5083
vn -0.7071 -0.0000 0.7071
vn -0.3928 -0.8315 0.3928
vn -0.8554 0.3777 0.3543
vn -0.8567 -0.3744 0.3549
vn -0.6641 -0.6952 0.2751
vn -0.8567 0.3744 0.3549
vn -0.9239 -0.0000 0.3827
vn -0.3724 0.9152 0.1543
vn -0.6641 0.6952 0.2751
vn -0.5133 -0.8315 0.2126
vn -0.4031 0.9152 0.0000
vn -0.7189 0.6952 -0.0000
vn -0.7189 -0.6952 -0.0000
vn -0.5556 -0.8315 -0.0000
vn -1.0000 -0.0000 -0.0000
vn -0.9273 -0.3744 -0.0000
vn -0.9273 0.3744 -0.0000
vn -0.6641 -0.6952 -0.2751
vn -0.5133 -0.8315 -0.2126
vn -0.9239 -0.0000 -0.3827
vn -0.8567 -0.3744 -0.3549
vn -0.6641 0.6952 -0.2751
vn -0.8567 0.3744 -0.3549
vn -0.3724 0.9152 -0.1543
vn 0.3543 0.3777 -0.8554
vn 0.6547 0.3777 -0.6547
vn -0.2850 0.9152 -0.2850
vn -0.6557 -0.3744 -0.6557
vn -0.5083 -0.6952 -0.5083
vn -0.6557 0.3744 -0.6557
vn -0.7071 -0.0000 -0.7071
vn -0.5083 0.6952 -0.5083
vn -0.3928 -0.8315 -0.3928
vn -0.3549 -0.3744 -0.8567
vn -0.2751 -0.6952 -0.6641
vn -0.3549 0.3744 -0.8567
vn -0.3827 0.0000 -0.9239
vn -0.1543 0.9152 -0.3724
vn -0.2751 0.6952 -0.6641
vn -0.2126 -0.8315 -0.5133
vn 0.0000 -1.0000 0.0000
vn 0.2680 -0.7139 -0.6469
vn -0.0000 -0.7139 -0.7002
vn 0.4951 -0.7139 -0.4951
vn 0.6469 -0.7139 -0.2680
vn 0.7002 -0.7139 0.0000
vn 0.6469 -0.7139 0.2680
vn 0.4951 -0.7139 0.4951
vn 0.2680 -0.7139 0.6469
vn -0.0000 -0.7139 0.7002
vn -0.2680 -0.7139 0.6469
vn -0.4951 -0.7139 0.4951
vn -0.6469 -0.7139 0.2680
vn -0.7002 -0.7139 -0.0000
vn -0.6469 -0.7139 -0.2680
vn -0.4951 -0.7139 -0.4951
vn -0.2680 -0.7139 -0.6469
usemtl boardgame
s 1
f 112/1/1 2/2/2 7/3/3 8/4/4
f 1/5/5 111/6/6 5/7/7 6/8/8
f 4/9/9 113/10/10 10/11/11 11/12/12
f 3/13/13 112/1/1 8/4/4 9/14/14
f 2/2/2 1/5/5 6/8/8 7/3/3
f 111/6/6 54/15/15 5/7/7
f 46/16/16 53/17/17 121/18/17 120/19/16
f 113/10/10 3/13/13 9/14/14 10/11/11
f 11/12/12 10/11/11 17/20/18 18/21/19
f 9/14/14 8/4/4 15/22/20 16/23/21
f 7/3/3 6/8/8 13/24/22 14/25/23
f 5/7/7 54/15/15 12/26/24
f 68/27/25 75/28/26 124/29/26 123/30/25
f 10/11/11 9/14/14 16/23/21 17/20/18
f 8/4/4 7/3/3 14/25/23 15/22/20
f 6/8/8 5/7/7 12/26/24 13/24/22
f 12/26/24 54/15/15 19/31/27
f 39/32/28 46/16/16 120/19/16 119/33/28
f 17/20/18 16/23/21 23/34/29 24/35/30
f 15/22/20 14/25/23 21/36/31 22/37/32
f 13/24/22 12/26/24 19/31/27 20/38/33
f 18/21/19 17/20/18 24/35/30 25/39/34
f 16/23/21 15/22/20 22/37/32 23/34/29
f 14/25/23 13/24/22 20/38/33 21/36/31
f 24/35/30 23/34/29 30/40/35 31/41/36
f 22/37/32 21/36/31 28/42/37 29/43/38
f 20/38/33 19/31/27 26/44/39 27/45/40
f 25/39/34 24/35/30 31/41/36 32/46/41
f 23/34/29 22/37/32 29/43/38 30/40/35
f 21/36/31 20/38/33 27/45/40 28/42/37
f 19/31/27 54/15/15 26/44/39
f 89/47/42 96/48/43 127/49/43 126/50/42
f 32/46/41 31/41/36 38/51/44 39/52/45
f 30/40/35 29/43/38 36/53/46 37/54/47
f 28/42/37 27/45/40 34/55/48 35/56/49
f 26/44/39 54/15/15 33/57/50
f 110/58/51 4/59/52 115/60/52 129/61/51
f 31/41/36 30/40/35 37/54/47 38/51/44
f 29/43/38 28/42/37 35/56/49 36/53/46
f 27/45/40 26/44/39 33/57/50 34/55/48
f 37/54/47 36/53/46 43/62/53 44/63/54
f 35/56/49 34/55/48 41/64/55 42/65/56
f 33/57/50 54/15/15 40/66/57
f 96/48/43 103/67/58 128/68/58 127/49/43
f 38/51/44 37/54/47 44/63/54 45/69/59
f 36/53/46 35/56/49 42/65/56 43/62/53
f 34/55/48 33/57/50 40/66/57 41/64/55
f 39/52/45 38/51/44 45/69/59 46/70/60
f 61/71/61 68/27/25 123/30/25 122/72/61
f 45/69/59 44/63/54 51/73/62 52/74/63
f 43/62/53 42/65/56 49/75/64 50/76/65
f 41/64/55 40/66/57 47/77/66 48/78/67
f 46/70/60 45/69/59 52/74/63 53/79/68
f 44/63/54 43/62/53 50/76/65 51/73/62
f 42/65/56 41/64/55 48/78/67 49/75/64
f 40/66/57 54/15/15 47/77/66
f 50/76/65 49/75/64 57/80/69 58/81/70
f 48/78/67 47/77/66 55/82/71 56/83/72
f 53/79/68 52/74/63 60/84/73 61/85/74
f 51/73/62 50/76/65 58/81/70 59/86/75
f 49/75/64 48/78/67 56/83/72 57/80/69
f 47/77/66 54/15/15 55/82/71
f 25/87/76 32/88/77 118/89/77 117/90/76
f 52/74/63 51/73/62 59/86/75 60/84/73
f 61/85/74 60/84/73 67/91/78 68/92/79
f 59/86/75 58/81/70 65/93/80 66/94/81
f 57/80/69 56/83/72 63/95/82 64/96/83
f 55/82/71 54/15/15 62/97/84
f 32/88/77 39/32/28 119/33/28 118/89/77
f 60/84/73 59/86/75 66/94/81 67/91/78
f 58/81/70 57/80/69 64/96/83 65/93/80
f 56/83/72 55/82/71 62/97/84 63/95/82
f 64/96/83 63/95/82 70/98/85 71/99/86
f 62/97/84 54/15/15 69/100/87
f 53/17/17 61/71/61 122/72/61 121/18/17
f 67/91/78 66/94/81 73/101/88 74/102/89
f 65/93/80 64/96/83 71/99/86 72/103/90
f 63/95/82 62/97/84 69/100/87 70/98/85
f 68/92/79 67/91/78 74/102/89 75/104/91
f 66/94/81 65/93/80 72/103/90 73/101/88
f 82/105/92 89/47/42 126/50/42 125/106/92
f 74/102/89 73/101/88 80/107/93 81/108/94
f 72/103/90 71/99/86 78/109/95 79/110/96
f 70/98/85 69/100/87 76/111/97 77/112/98
f 75/104/91 74/102/89 81/108/94 82/113/99
f 73/101/88 72/103/90 79/110/96 80/107/93
f 71/99/86 70/98/85 77/112/98 78/109/95
f 69/100/87 54/15/15 76/111/97
f 77/112/98 76/111/97 83/114/100 84/115/101
f 82/113/99 81/108/94 88/116/102 89/117/103
f 80/107/93 79/110/96 86/118/104 87/119/105
f 78/109/95 77/112/98 84/115/101 85/120/106
f 76/111/97 54/15/15 83/114/100
f 75/28/26 82/105/92 125/106/92 124/29/26
f 81/108/94 80/107/93 87/119/105 88/116/102
f 79/110/96 78/109/95 85/120/106 86/118/104
f 89/117/103 88/116/102 95/121/107 96/122/108
f 87/119/105 86/118/104 93/123/109 94/124/110
f 85/120/106 84/115/101 91/125/111 92/126/112
f 83/114/100 54/15/15 90/127/113
f 11/128/114 18/129/115 116/130/115 114/131/114
f 88/116/102 87/119/105 94/124/110 95/121/107
f 86/118/104 85/120/106 92/126/112 93/123/109
f 84/115/101 83/114/100 90/127/113 91/125/111
f 90/127/113 54/15/15 97/132/116
f 4/59/52 11/128/114 114/131/114 115/60/52
f 95/121/107 94/124/110 101/133/117 102/134/118
f 93/123/109 92/126/112 99/135/119 100/136/120
f 91/125/111 90/127/113 97/132/116 98/137/121
f 96/122/108 95/121/107 102/134/118 103/138/122
f 94/124/110 93/123/109 100/136/120 101/133/117
f 92/126/112 91/125/111 98/137/121 99/135/119
f 102/134/118 101/133/117 108/139/123 109/140/124
f 100/136/120 99/135/119 106/141/125 107/142/126
f 98/137/121 97/132/116 104/143/127 105/144/128
f 103/138/122 102/134/118 109/140/124 110/145/129
f 101/133/117 100/136/120 107/142/126 108/139/123
f 99/135/119 98/137/121 105/144/128 106/141/125
f 97/132/116 54/15/15 104/143/127
f 103/67/58 110/58/51 129/61/51 128/68/58
f 110/145/129 109/140/124 113/10/10 4/9/9
f 108/139/123 107/142/126 112/1/1 3/13/13
f 106/141/125 105/144/128 1/5/5 2/2/2
f 104/143/127 54/15/15 111/6/6
f 18/129/115 25/87/76 117/90/76 116/130/115
f 109/140/124 108/139/123 3/13/13 113/10/10
f 107/142/126 106/141/125 2/2/2 112/1/1
f 105/144/128 104/143/127 111/6/6 1/5/5
f 130/146/130 146/147/130 148/148/130
f 130/146/130 158/149/130 160/150/130
f 130/146/130 144/151/130 146/147/130
f 130/146/130 156/152/130 158/149/130
f 130/146/130 142/153/130 144/151/130
f 130/146/130 154/154/130 156/152/130
f 130/146/130 140/155/130 142/153/130
f 130/146/130 152/156/130 154/154/130
f 130/146/130 138/157/130 140/155/130
f 130/146/130 150/158/130 152/156/130
f 130/146/130 136/159/130 138/157/130
f 130/146/130 162/160/130 133/161/130
f 129/61/126 115/60/1 134/162/1 161/163/126
f 130/146/130 148/148/130 150/158/130
f 130/146/130 160/150/130 162/160/130
f 130/146/130 132/164/130 136/159/130
f 114/131/4 116/130/20 135/165/20 131/166/4
f 130/146/130 133/161/130 132/164/130
f 117/90/32 118/89/38 139/167/38 137/168/32
f 118/89/38 119/33/46 141/169/46 139/167/38
f 119/33/46 120/19/53 143/170/53 141/169/46
f 120/19/53 121/18/65 145/171/65 143/170/53
f 121/18/65 122/72/70 147/172/70 145/171/65
f 122/72/70 123/30/80 149/173/80 147/172/70
f 123/30/80 124/29/90 151/174/90 149/173/80
f 124/29/90 125/106/96 153/175/96 151/174/90
f 125/106/96 126/50/104 155/176/104 153/175/96
f 126/50/104 127/49/109 157/177/109 155/176/104
f 127/49/109 128/68/120 159/178/120 157/177/109
f 128/68/120 129/61/126 161/163/126 159/178/120
f 116/130/20 117/90/32 137/168/32 135/165/20
f 132/164/131 133/161/132 134/179/132 131/180/131
f 136/159/133 132/164/131 131/180/131 135/181/133
f 135/181/133 137/182/134 138/157/134 136/159/133
f 140/155/135 138/157/134 137/182/134 139/183/135
f 142/153/136 140/155/135 139/183/135 141/184/136
f 141/184/136 143/185/137 144/151/137 142/153/136
f 143/185/137 145/186/138 146/147/138 144/151/137
f 148/148/139 146/147/138 145/186/138 147/187/139
f 150/158/140 148/148/139 147/187/139 149/188/140
f 149/188/140 151/189/141 152/156/141 150/158/140
f 151/189/141 153/190/142 154/154/142 152/156/141
f 156/152/143 154/154/142 153/190/142 155/191/143
f 158/149/144 156/152/143 155/191/143 157/192/144
f 157/192/144 159/193/145 160/150/145 158/149/144
f 162/160/146 160/150/145 159/193/145 161/194/146
f 133/161/132 162/160/146 161/194/146 134/179/132
f 115/60/1 114/131/4 131/166/4 134/162/1
