# Blender v3.4.1 OBJ File: 'Board_game_bits_export.blend'
# www.blender.org
mtllib tile_rogue_yellow.mtl
o tile_rogue_yellow
v -0.350000 0.000000 0.474359
v -0.350000 0.025000 0.500000
v -0.500000 0.025000 0.350000
v -0.474359 0.000000 0.350000
v -0.425000 0.025000 0.479904
v -0.412171 0.000000 0.457683
v -0.479904 0.025000 0.425000
v -0.457683 0.000000 0.412171
v -0.474359 0.200000 0.350000
v -0.500000 0.175000 0.350000
v -0.350000 0.175000 0.500000
v -0.350000 0.200000 0.474359
v -0.457683 0.200000 0.412171
v -0.479904 0.175000 0.425000
v -0.412171 0.200000 0.457683
v -0.425000 0.175000 0.479904
v -0.474359 -0.000000 -0.350000
v -0.500000 0.025000 -0.350000
v -0.350000 0.025000 -0.500000
v -0.350000 -0.000000 -0.474359
v -0.457683 -0.000000 -0.412171
v -0.479904 0.025000 -0.425000
v -0.412171 -0.000000 -0.457683
v -0.425000 0.025000 -0.479904
v -0.350000 0.200000 -0.474359
v -0.350000 0.175000 -0.500000
v -0.500000 0.175000 -0.350000
v -0.474359 0.200000 -0.350000
v -0.425000 0.175000 -0.479904
v -0.412171 0.200000 -0.457683
v -0.479904 0.175000 -0.425000
v -0.457683 0.200000 -0.412171
v 0.474359 0.000000 0.350000
v 0.500000 0.025000 0.350000
v 0.350000 0.025000 0.500000
v 0.350000 0.000000 0.474359
v 0.457683 0.000000 0.412171
v 0.479904 0.025000 0.425000
v 0.412171 0.000000 0.457683
v 0.425000 0.025000 0.479904
v 0.350000 0.200000 0.474359
v 0.350000 0.175000 0.500000
v 0.500000 0.175000 0.350000
v 0.474359 0.200000 0.350000
v 0.425000 0.175000 0.479904
v 0.412171 0.200000 0.457683
v 0.479904 0.175000 0.425000
v 0.457683 0.200000 0.412171
v 0.350000 -0.000000 -0.474359
v 0.350000 0.025000 -0.500000
v 0.500000 0.025000 -0.350000
v 0.474359 -0.000000 -0.350000
v 0.412171 -0.000000 -0.457683
v 0.425000 0.025000 -0.479904
v 0.457683 -0.000000 -0.412171
v 0.479904 0.025000 -0.425000
v 0.474359 0.200000 -0.350000
v 0.500000 0.175000 -0.350000
v 0.350000 0.175000 -0.500000
v 0.350000 0.200000 -0.474359
v 0.479904 0.175000 -0.425000
v 0.457683 0.200000 -0.412171
v 0.425000 0.175000 -0.479904
v 0.412171 0.200000 -0.457683
v -0.350000 0.200000 -0.350000
v 0.350000 0.200000 -0.350000
v 0.350000 0.200000 0.350000
v -0.350000 0.200000 0.350000
v -0.350000 -0.000000 -0.350000
v 0.350000 -0.000000 -0.350000
v 0.350000 0.000000 0.350000
v -0.350000 0.000000 0.350000
v -0.350000 0.000000 0.474359
v -0.474359 0.000000 0.350000
v -0.412171 0.000000 0.457683
v -0.457683 0.000000 0.412171
v -0.474359 0.200000 0.350000
v -0.350000 0.200000 0.474359
v -0.457683 0.200000 0.412171
v -0.412171 0.200000 0.457683
v -0.474359 -0.000000 -0.350000
v -0.350000 -0.000000 -0.474359
v -0.457683 -0.000000 -0.412171
v -0.412171 -0.000000 -0.457683
v -0.350000 0.200000 -0.474359
v -0.474359 0.200000 -0.350000
v -0.412171 0.200000 -0.457683
v -0.457683 0.200000 -0.412171
v 0.474359 0.000000 0.350000
v 0.350000 0.000000 0.474359
v 0.457683 0.000000 0.412171
v 0.412171 0.000000 0.457683
v 0.350000 0.200000 0.474359
v 0.474359 0.200000 0.350000
v 0.412171 0.200000 0.457683
v 0.457683 0.200000 0.412171
v 0.350000 -0.000000 -0.474359
v 0.474359 -0.000000 -0.350000
v 0.412171 -0.000000 -0.457683
v 0.457683 -0.000000 -0.412171
v 0.474359 0.200000 -0.350000
v 0.350000 0.200000 -0.474359
v 0.457683 0.200000 -0.412171
v 0.412171 0.200000 -0.457683
vt 0.347959 0.841053
vt 0.347959 0.871672
vt 0.277041 0.871672
vt 0.277041 0.841053
vt 0.261844 0.841053
vt 0.261844 0.871672
vt 0.261844 0.871672
vt 0.261844 0.841053
vt 0.277041 0.871672
vt 0.277041 0.841053
vt 0.269443 0.841053
vt 0.269443 0.871672
vt 0.363156 0.871672
vt 0.363156 0.841053
vt 0.361120 0.841053
vt 0.361120 0.871672
vt 0.363156 0.871672
vt 0.363156 0.841053
vt 0.355557 0.871672
vt 0.355557 0.841053
vt 0.347959 0.841053
vt 0.347959 0.871672
vt 0.355557 0.841053
vt 0.355557 0.871672
vt 0.269443 0.841053
vt 0.269443 0.871672
vt 0.263880 0.871672
vt 0.263880 0.841053
vt 0.361120 0.871672
vt 0.361120 0.841053
vt 0.263880 0.841053
vt 0.263880 0.871672
vt 0.270743 0.898450
vt 0.277041 0.898450
vt 0.277041 0.903553
vt 0.269443 0.903553
vt 0.277041 0.908025
vt 0.270743 0.908025
vt 0.269443 0.902922
vt 0.277041 0.902922
vt 0.266132 0.898450
vt 0.263880 0.903553
vt 0.266132 0.908025
vt 0.263880 0.902922
vt 0.264442 0.898450
vt 0.261844 0.903553
vt 0.264442 0.908025
vt 0.261844 0.902922
vt 0.270743 0.908025
vt 0.277041 0.908025
vt 0.277041 0.902922
vt 0.269443 0.902922
vt 0.277041 0.898450
vt 0.270743 0.898450
vt 0.269443 0.903553
vt 0.277041 0.903553
vt 0.266132 0.908025
vt 0.263880 0.902922
vt 0.266132 0.898450
vt 0.263880 0.903553
vt 0.264442 0.908025
vt 0.261844 0.902922
vt 0.264442 0.898450
vt 0.261844 0.903553
vt 0.358868 0.908025
vt 0.360558 0.908025
vt 0.363156 0.902922
vt 0.361120 0.902922
vt 0.360558 0.898450
vt 0.358868 0.898450
vt 0.361120 0.903553
vt 0.363156 0.903553
vt 0.354257 0.908025
vt 0.355557 0.902922
vt 0.354257 0.898450
vt 0.355557 0.903553
vt 0.347959 0.908025
vt 0.347959 0.902922
vt 0.347959 0.898450
vt 0.347959 0.903553
vt 0.354257 0.908025
vt 0.347959 0.908025
vt 0.347959 0.902922
vt 0.355557 0.902922
vt 0.347959 0.898450
vt 0.354257 0.898450
vt 0.355557 0.903553
vt 0.347959 0.903553
vt 0.358868 0.908025
vt 0.361120 0.902922
vt 0.358868 0.898450
vt 0.361120 0.903553
vt 0.360558 0.908025
vt 0.363156 0.902922
vt 0.360558 0.898450
vt 0.363156 0.903553
vt 0.270283 0.876327
vt 0.270283 0.876327
vt 0.340850 0.876327
vt 0.340850 0.876327
vt 0.340850 0.876327
vt 0.353387 0.876327
vt 0.353387 0.876327
vt 0.257746 0.876327
vt 0.257746 0.876327
vt 0.270283 0.876327
vt 0.259428 0.876327
vt 0.264016 0.876327
vt 0.264016 0.876327
vt 0.259428 0.876327
vt 0.270283 0.876327
vt 0.340850 0.876327
vt 0.351706 0.876327
vt 0.347118 0.876327
vt 0.351706 0.876327
vt 0.347118 0.876327
vt 0.848645 0.875661
vt 0.848645 0.979558
vt 0.151355 0.979558
vt 0.151355 0.875661
vt 0.089426 0.965625
vt 0.972521 0.875661
vt 0.955910 0.927602
vt 0.848645 0.186941
vt 0.910574 0.200873
vt 0.848645 0.290838
vt 0.027479 0.875661
vt 0.044090 0.927602
vt 0.151355 0.290838
vt 0.151355 0.186941
vt 0.089426 0.200873
vt 0.910574 0.965625
vt 0.955910 0.238896
vt 0.044090 0.238896
vt 0.972521 0.290838
vt 0.027479 0.290838
vn 0.1305 0.0000 0.9914
vn -0.1305 0.0000 0.9914
vn -0.9914 0.0000 0.1305
vn -0.9914 0.0000 -0.1305
vn -0.1305 0.0000 -0.9914
vn -0.5000 0.0000 -0.8660
vn 0.9914 0.0000 -0.1305
vn 0.8660 0.0000 -0.5000
vn 0.9914 0.0000 0.1305
vn 0.5000 0.0000 -0.8660
vn 0.1305 0.0000 -0.9914
vn 0.5000 0.0000 0.8660
vn -0.5000 0.0000 0.8660
vn -0.8660 0.0000 0.5000
vn 0.8660 0.0000 0.5000
vn -0.8660 0.0000 -0.5000
vn -0.3490 -0.7162 0.6044
vn -0.0975 -0.7127 0.6947
vn -0.0865 -0.7134 0.6954
vn -0.0975 0.7127 0.6947
vn -0.3490 0.7162 0.6044
vn -0.0865 0.7134 0.6954
vn -0.6044 -0.7162 0.3490
vn -0.6044 0.7162 0.3490
vn -0.6947 -0.7127 0.0975
vn -0.6954 -0.7134 0.0865
vn -0.6947 0.7127 0.0975
vn -0.6954 0.7134 0.0865
vn -0.3490 0.7162 -0.6044
vn -0.0975 0.7127 -0.6947
vn -0.0865 0.7134 -0.6954
vn -0.0975 -0.7127 -0.6947
vn -0.3490 -0.7162 -0.6044
vn -0.0865 -0.7134 -0.6954
vn -0.6044 0.7162 -0.3490
vn -0.6044 -0.7162 -0.3490
vn -0.6947 0.7127 -0.0975
vn -0.6954 0.7134 -0.0865
vn -0.6947 -0.7127 -0.0975
vn -0.6954 -0.7134 -0.0865
vn 0.6044 0.7162 -0.3490
vn 0.6947 0.7127 -0.0975
vn 0.6954 0.7134 -0.0865
vn 0.6947 -0.7127 -0.0975
vn 0.6044 -0.7162 -0.3490
vn 0.6954 -0.7134 -0.0865
vn 0.3490 0.7162 -0.6044
vn 0.3490 -0.7162 -0.6044
vn 0.0975 0.7127 -0.6947
vn 0.0865 0.7134 -0.6954
vn 0.0975 -0.7127 -0.6947
vn 0.0865 -0.7134 -0.6954
vn 0.3490 0.7162 0.6044
vn 0.0975 0.7127 0.6947
vn 0.0865 0.7134 0.6954
vn 0.0975 -0.7127 0.6947
vn 0.3490 -0.7162 0.6044
vn 0.0865 -0.7134 0.6954
vn 0.6044 0.7162 0.3490
vn 0.6044 -0.7162 0.3490
vn 0.6947 0.7127 0.0975
vn 0.6954 0.7134 0.0865
vn 0.6947 -0.7127 0.0975
vn 0.6954 -0.7134 0.0865
vn -0.0000 -1.0000 0.0000
vn 0.0000 1.0000 -0.0000
usemtl boardgame
s 1
f 35/1/1 42/2/1 11/3/2 2/4/2
f 3/5/3 10/6/3 27/7/4 18/8/4
f 26/9/5 19/10/5 24/11/6 29/12/6
f 58/13/7 51/14/7 56/15/8 61/16/8
f 51/14/7 58/13/7 43/17/9 34/18/9
f 63/19/10 54/20/10 50/21/11 59/22/11
f 19/10/5 26/9/5 59/22/11 50/21/11
f 42/2/1 35/1/1 40/23/12 45/24/12
f 5/25/13 16/26/13 14/27/14 7/28/14
f 47/29/15 38/30/15 34/18/9 43/17/9
f 2/4/2 11/3/2 16/26/13 5/25/13
f 7/28/14 14/27/14 10/6/3 3/5/3
f 45/24/12 40/23/12 38/30/15 47/29/15
f 61/16/8 56/15/8 54/20/10 63/19/10
f 29/12/6 24/11/6 22/31/16 31/32/16
f 31/32/16 22/31/16 18/8/4 27/7/4
f 6/33/17 1/34/18 2/35/19 5/36/17
f 12/37/20 15/38/21 16/39/21 11/40/22
f 8/41/23 6/33/17 5/36/17 7/42/23
f 15/38/21 13/43/24 14/44/24 16/39/21
f 4/45/25 8/41/23 7/42/23 3/46/26
f 13/43/24 9/47/27 10/48/28 14/44/24
f 30/49/29 25/50/30 26/51/31 29/52/29
f 20/53/32 23/54/33 24/55/33 19/56/34
f 32/57/35 30/49/29 29/52/29 31/58/35
f 23/54/33 21/59/36 22/60/36 24/55/33
f 28/61/37 32/57/35 31/58/35 27/62/38
f 21/59/36 17/63/39 18/64/40 22/60/36
f 62/65/41 57/66/42 58/67/43 61/68/41
f 52/69/44 55/70/45 56/71/45 51/72/46
f 64/73/47 62/65/41 61/68/41 63/74/47
f 55/70/45 53/75/48 54/76/48 56/71/45
f 60/77/49 64/73/47 63/74/47 59/78/50
f 53/75/48 49/79/51 50/80/52 54/76/48
f 46/81/53 41/82/54 42/83/55 45/84/53
f 36/85/56 39/86/57 40/87/57 35/88/58
f 48/89/59 46/81/53 45/84/53 47/90/59
f 39/86/57 37/91/60 38/92/60 40/87/57
f 44/93/61 48/89/59 47/90/59 43/94/62
f 37/91/60 33/95/63 34/96/64 38/92/60
f 3/46/26 18/64/40 17/63/39 4/45/25
f 19/56/34 50/80/52 49/79/51 20/53/32
f 51/72/46 34/96/64 33/95/63 52/69/44
f 35/88/58 2/35/19 1/34/18 36/85/56
f 9/47/27 28/61/37 27/62/38 10/48/28
f 41/82/54 12/37/20 11/40/22 42/83/55
f 43/94/62 58/67/43 57/66/42 44/93/61
f 59/78/50 26/51/31 25/50/30 60/77/49
f 73/97/65 72/98/65 71/99/65 90/100/65
f 71/99/65 70/101/65 98/102/65 89/103/65
f 74/104/65 81/105/65 69/106/65 72/98/65
f 83/107/65 84/108/65 69/106/65
f 75/109/65 76/110/65 72/98/65
f 69/106/65 82/111/65 97/112/65 70/101/65
f 98/102/65 70/101/65 100/113/65
f 90/100/65 71/99/65 92/114/65
f 69/106/65 84/108/65 82/111/65
f 72/98/65 69/106/65 70/101/65 71/99/65
f 76/110/65 74/104/65 72/98/65
f 81/105/65 83/107/65 69/106/65
f 92/114/65 71/99/65 91/115/65
f 70/101/65 99/116/65 100/113/65
f 71/99/65 89/103/65 91/115/65
f 70/101/65 97/112/65 99/116/65
f 75/109/65 72/98/65 73/97/65
usemtl yellow_rogue
f 66/117/66 102/118/66 85/119/66 65/120/66
f 65/120/66 85/119/66 87/121/66
f 101/122/66 103/123/66 66/117/66
f 93/124/66 95/125/66 67/126/66
f 86/127/66 65/120/66 88/128/66
f 67/126/66 66/117/66 65/120/66 68/129/66
f 78/130/66 68/129/66 80/131/66
f 103/123/66 104/132/66 66/117/66
f 95/125/66 96/133/66 67/126/66
f 68/129/66 79/134/66 80/131/66
f 94/135/66 101/122/66 66/117/66 67/126/66
f 68/129/66 65/120/66 86/127/66 77/136/66
f 93/124/66 67/126/66 68/129/66 78/130/66
f 68/129/66 77/136/66 79/134/66
f 88/128/66 65/120/66 87/121/66
f 66/117/66 104/132/66 102/118/66
f 96/133/66 94/135/66 67/126/66
