# Blender v3.4.1 OBJ File: 'Board_game_bits_export.blend'
# www.blender.org
mtllib tile_red.mtl
o tile_red
v -0.350000 0.200000 -0.350000
v 0.350000 0.200000 -0.350000
v 0.350000 0.200000 0.350000
v -0.350000 0.200000 0.350000
v -0.350000 0.000000 -0.350000
v 0.350000 0.000000 -0.350000
v 0.350000 0.000000 0.350000
v -0.350000 0.000000 0.350000
v -0.350000 0.000000 0.474359
v -0.350000 0.025000 0.500000
v -0.500000 0.025000 0.350000
v -0.474359 0.000000 0.350000
v -0.425000 0.025000 0.479904
v -0.412171 0.000000 0.457683
v -0.479904 0.025000 0.425000
v -0.457683 0.000000 0.412171
v -0.474359 0.200000 0.350000
v -0.500000 0.175000 0.350000
v -0.350000 0.175000 0.500000
v -0.350000 0.200000 0.474359
v -0.457683 0.200000 0.412171
v -0.479904 0.175000 0.425000
v -0.412171 0.200000 0.457683
v -0.425000 0.175000 0.479904
v -0.474359 0.000000 -0.350000
v -0.500000 0.025000 -0.350000
v -0.350000 0.025000 -0.500000
v -0.350000 0.000000 -0.474359
v -0.457683 0.000000 -0.412171
v -0.479904 0.025000 -0.425000
v -0.412171 0.000000 -0.457683
v -0.425000 0.025000 -0.479904
v -0.350000 0.200000 -0.474359
v -0.350000 0.175000 -0.500000
v -0.500000 0.175000 -0.350000
v -0.474359 0.200000 -0.350000
v -0.425000 0.175000 -0.479904
v -0.412171 0.200000 -0.457683
v -0.479904 0.175000 -0.425000
v -0.457683 0.200000 -0.412171
v 0.474359 0.000000 0.350000
v 0.500000 0.025000 0.350000
v 0.350000 0.025000 0.500000
v 0.350000 0.000000 0.474359
v 0.457683 0.000000 0.412171
v 0.479904 0.025000 0.425000
v 0.412171 0.000000 0.457683
v 0.425000 0.025000 0.479904
v 0.350000 0.200000 0.474359
v 0.350000 0.175000 0.500000
v 0.500000 0.175000 0.350000
v 0.474359 0.200000 0.350000
v 0.425000 0.175000 0.479904
v 0.412171 0.200000 0.457683
v 0.479904 0.175000 0.425000
v 0.457683 0.200000 0.412171
v 0.350000 0.000000 -0.474359
v 0.350000 0.025000 -0.500000
v 0.500000 0.025000 -0.350000
v 0.474359 0.000000 -0.350000
v 0.412171 0.000000 -0.457683
v 0.425000 0.025000 -0.479904
v 0.457683 0.000000 -0.412171
v 0.479904 0.025000 -0.425000
v 0.474359 0.200000 -0.350000
v 0.500000 0.175000 -0.350000
v 0.350000 0.175000 -0.500000
v 0.350000 0.200000 -0.474359
v 0.479904 0.175000 -0.425000
v 0.457683 0.200000 -0.412171
v 0.425000 0.175000 -0.479904
v 0.412171 0.200000 -0.457683
vt 0.523951 0.799694
vt 0.523951 0.799694
vt 0.601049 0.799694
vt 0.601049 0.799694
vt 0.601049 0.799694
vt 0.614745 0.799694
vt 0.614745 0.799694
vt 0.601049 0.934681
vt 0.601049 0.934680
vt 0.523951 0.934680
vt 0.523951 0.934681
vt 0.510254 0.799694
vt 0.510254 0.799694
vt 0.523951 0.799694
vt 0.512091 0.799694
vt 0.517104 0.799694
vt 0.601049 0.841958
vt 0.601049 0.908042
vt 0.523951 0.908042
vt 0.523951 0.841958
vt 0.517104 0.799694
vt 0.512091 0.799694
vt 0.507430 0.841958
vt 0.507430 0.908042
vt 0.507430 0.908042
vt 0.507430 0.841958
vt 0.523951 0.799694
vt 0.601049 0.799694
vt 0.517104 0.934680
vt 0.523951 0.908042
vt 0.523951 0.841958
vt 0.515691 0.841958
vt 0.515691 0.908042
vt 0.612909 0.799694
vt 0.614745 0.934681
vt 0.612909 0.934681
vt 0.617570 0.908042
vt 0.617570 0.841958
vt 0.615356 0.841958
vt 0.615356 0.908042
vt 0.607896 0.799694
vt 0.601049 0.934681
vt 0.607896 0.934681
vt 0.601049 0.934681
vt 0.617570 0.908042
vt 0.617570 0.841958
vt 0.609309 0.908042
vt 0.609309 0.841958
vt 0.601049 0.841958
vt 0.601049 0.908042
vt 0.510254 0.934681
vt 0.512091 0.934681
vt 0.523951 0.934681
vt 0.523951 0.934681
vt 0.517104 0.934681
vt 0.607896 0.934680
vt 0.612909 0.934681
vt 0.512091 0.934681
vt 0.614745 0.934681
vt 0.510254 0.934681
vt 0.609309 0.841958
vt 0.609309 0.908042
vt 0.515691 0.841958
vt 0.515691 0.908042
vt 0.509644 0.908042
vt 0.509644 0.841958
vt 0.615356 0.908042
vt 0.615356 0.841958
vt 0.612909 0.799694
vt 0.607896 0.799694
vt 0.509644 0.841958
vt 0.509644 0.908042
vt 0.517104 0.815319
vt 0.523951 0.815319
vt 0.523951 0.826333
vt 0.515691 0.826333
vt 0.523951 0.965931
vt 0.517104 0.965931
vt 0.515691 0.954917
vt 0.523951 0.954917
vt 0.512091 0.815319
vt 0.509644 0.826333
vt 0.512091 0.965931
vt 0.509644 0.954917
vt 0.510254 0.815319
vt 0.507430 0.826333
vt 0.510254 0.965931
vt 0.507430 0.954917
vt 0.517104 0.965930
vt 0.523951 0.965930
vt 0.523951 0.954917
vt 0.515691 0.954917
vt 0.523951 0.815319
vt 0.517104 0.815319
vt 0.515691 0.826333
vt 0.523951 0.826333
vt 0.512091 0.965931
vt 0.509644 0.954917
vt 0.512091 0.815319
vt 0.509644 0.826333
vt 0.510254 0.965931
vt 0.507430 0.954917
vt 0.510254 0.815319
vt 0.507430 0.826333
vt 0.612909 0.965931
vt 0.614745 0.965931
vt 0.617570 0.954917
vt 0.615356 0.954917
vt 0.614745 0.815319
vt 0.612909 0.815319
vt 0.615356 0.826333
vt 0.617570 0.826333
vt 0.607896 0.965930
vt 0.609309 0.954917
vt 0.607896 0.815319
vt 0.609309 0.826333
vt 0.601049 0.965930
vt 0.601049 0.954917
vt 0.601049 0.815319
vt 0.601049 0.826333
vt 0.607896 0.965931
vt 0.601049 0.965931
vt 0.601049 0.954917
vt 0.609309 0.954917
vt 0.601049 0.815319
vt 0.607896 0.815319
vt 0.609309 0.826333
vt 0.601049 0.826333
vt 0.612909 0.965931
vt 0.615356 0.954917
vt 0.612909 0.815319
vt 0.615356 0.826333
vt 0.614745 0.965931
vt 0.617570 0.954917
vt 0.614745 0.815319
vt 0.617570 0.826333
vn 0.0000 -1.0000 0.0000
vn 0.0000 1.0000 0.0000
vn 0.1305 0.0000 0.9914
vn -0.1305 0.0000 0.9914
vn -0.9914 0.0000 0.1305
vn -0.9914 0.0000 -0.1305
vn -0.1305 0.0000 -0.9914
vn -0.5000 0.0000 -0.8660
vn 0.9914 0.0000 -0.1305
vn 0.8660 0.0000 -0.5000
vn 0.9914 0.0000 0.1305
vn 0.5000 0.0000 -0.8660
vn 0.1305 0.0000 -0.9914
vn 0.5000 0.0000 0.8660
vn -0.5000 0.0000 0.8660
vn -0.8660 0.0000 0.5000
vn 0.8660 0.0000 0.5000
vn -0.8660 0.0000 -0.5000
vn -0.3490 -0.7162 0.6044
vn -0.0975 -0.7127 0.6947
vn -0.0865 -0.7134 0.6954
vn -0.0975 0.7127 0.6947
vn -0.3490 0.7162 0.6044
vn -0.0865 0.7134 0.6954
vn -0.6044 -0.7162 0.3490
vn -0.6044 0.7162 0.3490
vn -0.6947 -0.7127 0.0975
vn -0.6954 -0.7134 0.0865
vn -0.6947 0.7127 0.0975
vn -0.6954 0.7134 0.0865
vn -0.3490 0.7162 -0.6044
vn -0.0975 0.7127 -0.6947
vn -0.0865 0.7134 -0.6954
vn -0.0975 -0.7127 -0.6947
vn -0.3490 -0.7162 -0.6044
vn -0.0865 -0.7134 -0.6954
vn -0.6044 0.7162 -0.3490
vn -0.6044 -0.7162 -0.3490
vn -0.6947 0.7127 -0.0975
vn -0.6954 0.7134 -0.0865
vn -0.6947 -0.7127 -0.0975
vn -0.6954 -0.7134 -0.0865
vn 0.6044 0.7162 -0.3490
vn 0.6947 0.7127 -0.0975
vn 0.6954 0.7134 -0.0865
vn 0.6947 -0.7127 -0.0975
vn 0.6044 -0.7162 -0.3490
vn 0.6954 -0.7134 -0.0865
vn 0.3490 0.7162 -0.6044
vn 0.3490 -0.7162 -0.6044
vn 0.0975 0.7127 -0.6947
vn 0.0865 0.7134 -0.6954
vn 0.0975 -0.7127 -0.6947
vn 0.0865 -0.7134 -0.6954
vn 0.3490 0.7162 0.6044
vn 0.0975 0.7127 0.6947
vn 0.0865 0.7134 0.6954
vn 0.0975 -0.7127 0.6947
vn 0.3490 -0.7162 0.6044
vn 0.0865 -0.7134 0.6954
vn 0.6044 0.7162 0.3490
vn 0.6044 -0.7162 0.3490
vn 0.6947 0.7127 0.0975
vn 0.6954 0.7134 0.0865
vn 0.6947 -0.7127 0.0975
vn 0.6954 -0.7134 0.0865
usemtl boardgame
s 1
f 9/1/1 8/2/1 7/3/1 44/4/1
f 7/3/1 6/5/1 60/6/1 41/7/1
f 2/8/2 68/9/2 33/10/2 1/11/2
f 12/12/1 25/13/1 5/14/1 8/2/1
f 29/15/1 31/16/1 5/14/1
f 43/17/3 50/18/3 19/19/4 10/20/4
f 14/21/1 16/22/1 8/2/1
f 11/23/5 18/24/5 35/25/6 26/26/6
f 5/14/1 28/27/1 57/28/1 6/5/1
f 1/11/2 33/10/2 38/29/2
f 34/30/7 27/31/7 32/32/8 37/33/8
f 60/6/1 6/5/1 63/34/1
f 65/35/2 70/36/2 2/8/2
f 66/37/9 59/38/9 64/39/10 69/40/10
f 44/4/1 7/3/1 47/41/1
f 49/42/2 54/43/2 3/44/2
f 59/38/9 66/37/9 51/45/11 42/46/11
f 71/47/12 62/48/12 58/49/13 67/50/13
f 36/51/2 1/11/2 40/52/2
f 3/44/2 2/8/2 1/11/2 4/53/2
f 20/54/2 4/53/2 23/55/2
f 70/36/2 72/56/2 2/8/2
f 54/43/2 56/57/2 3/44/2
f 4/53/2 21/58/2 23/55/2
f 52/59/2 65/35/2 2/8/2 3/44/2
f 4/53/2 1/11/2 36/51/2 17/60/2
f 27/31/7 34/30/7 67/50/13 58/49/13
f 50/18/3 43/17/3 48/61/14 53/62/14
f 13/63/15 24/64/15 22/65/16 15/66/16
f 5/14/1 31/16/1 28/27/1
f 8/2/1 5/14/1 6/5/1 7/3/1
f 16/22/1 12/12/1 8/2/1
f 55/67/17 46/68/17 42/46/11 51/45/11
f 10/20/4 19/19/4 24/64/15 13/63/15
f 25/13/1 29/15/1 5/14/1
f 49/42/2 3/44/2 4/53/2 20/54/2
f 15/66/16 22/65/16 18/24/5 11/23/5
f 4/53/2 17/60/2 21/58/2
f 47/41/1 7/3/1 45/69/1
f 53/62/14 48/61/14 46/68/17 55/67/17
f 69/40/10 64/39/10 62/48/12 71/47/12
f 6/5/1 61/70/1 63/34/1
f 37/33/8 32/32/8 30/71/18 39/72/18
f 39/72/18 30/71/18 26/26/6 35/25/6
f 40/52/2 1/11/2 38/29/2
f 7/3/1 41/7/1 45/69/1
f 2/8/2 72/56/2 68/9/2
f 6/5/1 57/28/1 61/70/1
f 56/57/2 52/59/2 3/44/2
f 14/73/19 9/74/20 10/75/21 13/76/19
f 20/77/22 23/78/23 24/79/23 19/80/24
f 16/81/25 14/73/19 13/76/19 15/82/25
f 23/78/23 21/83/26 22/84/26 24/79/23
f 12/85/27 16/81/25 15/82/25 11/86/28
f 21/83/26 17/87/29 18/88/30 22/84/26
f 38/89/31 33/90/32 34/91/33 37/92/31
f 28/93/34 31/94/35 32/95/35 27/96/36
f 40/97/37 38/89/31 37/92/31 39/98/37
f 31/94/35 29/99/38 30/100/38 32/95/35
f 36/101/39 40/97/37 39/98/37 35/102/40
f 29/99/38 25/103/41 26/104/42 30/100/38
f 70/105/43 65/106/44 66/107/45 69/108/43
f 60/109/46 63/110/47 64/111/47 59/112/48
f 72/113/49 70/105/43 69/108/43 71/114/49
f 63/110/47 61/115/50 62/116/50 64/111/47
f 68/117/51 72/113/49 71/114/49 67/118/52
f 61/115/50 57/119/53 58/120/54 62/116/50
f 54/121/55 49/122/56 50/123/57 53/124/55
f 44/125/58 47/126/59 48/127/59 43/128/60
f 56/129/61 54/121/55 53/124/55 55/130/61
f 47/126/59 45/131/62 46/132/62 48/127/59
f 52/133/63 56/129/61 55/130/61 51/134/64
f 45/131/62 41/135/65 42/136/66 46/132/62
f 11/86/28 26/104/42 25/103/41 12/85/27
f 27/96/36 58/120/54 57/119/53 28/93/34
f 59/112/48 42/136/66 41/135/65 60/109/46
f 43/128/60 10/75/21 9/74/20 44/125/58
f 17/87/29 36/101/39 35/102/40 18/88/30
f 49/122/56 20/77/22 19/80/24 50/123/57
f 51/134/64 66/107/45 65/106/44 52/133/63
f 67/118/52 34/91/33 33/90/32 68/117/51
f 14/21/1 8/2/1 9/1/1
